<svg version="1.1" viewBox="0.0 0.0 944.8818897637796 264.56692913385825" fill="none" stroke="none" stroke-linecap="square" stroke-miterlimit="10" xmlns:xlink="http://www.w3.org/1999/xlink" xmlns="http://www.w3.org/2000/svg"><clipPath id="p.0"><path d="m0 0l944.8819 0l0 264.56693l-944.8819 0l0 -264.56693z" clip-rule="nonzero"/></clipPath><g clip-path="url(#p.0)"><path fill="#000000" fill-opacity="0.0" d="m0 0l944.8819 0l0 264.56693l-944.8819 0z" fill-rule="evenodd"/><path fill="#ffffff" d="m18.721785 43.99788l0 0c0 -13.9596 11.316494 -25.276094 25.276094 -25.276094l101.10135 0l0 0c6.703644 0 13.132721 2.6630096 17.87291 7.4031982c4.7401886 4.7401867 7.4031982 11.16926 7.4031982 17.872896l0 176.37694c0 13.95961 -11.316498 25.276108 -25.276108 25.276108l-101.10135 0c-13.9596 0 -25.276094 -11.316498 -25.276094 -25.276108z" fill-rule="evenodd"/><path stroke="#000000" stroke-width="2.0" stroke-linejoin="round" stroke-linecap="butt" d="m18.721785 43.99788l0 0c0 -13.9596 11.316494 -25.276094 25.276094 -25.276094l101.10135 0l0 0c6.703644 0 13.132721 2.6630096 17.87291 7.4031982c4.7401886 4.7401867 7.4031982 11.16926 7.4031982 17.872896l0 176.37694c0 13.95961 -11.316498 25.276108 -25.276108 25.276108l-101.10135 0c-13.9596 0 -25.276094 -11.316498 -25.276094 -25.276108z" fill-rule="evenodd"/><path fill="#4a86e8" d="m206.90695 43.929638l0 0c0 -13.921913 11.285934 -25.207853 25.20784 -25.207853l100.828384 0l0 0c6.685547 0 13.0972595 2.6558208 17.824646 7.383209c4.7273865 4.7273903 7.383209 11.139105 7.383209 17.824644l0 176.51343c0 13.9219055 -11.285919 25.207855 -25.207855 25.207855l-100.828384 0c-13.9219055 0 -25.20784 -11.28595 -25.20784 -25.207855z" fill-rule="evenodd"/><path stroke="#000000" stroke-width="2.0" stroke-linejoin="round" stroke-linecap="butt" d="m206.90695 43.929638l0 0c0 -13.921913 11.285934 -25.207853 25.20784 -25.207853l100.828384 0l0 0c6.685547 0 13.0972595 2.6558208 17.824646 7.383209c4.7273865 4.7273903 7.383209 11.139105 7.383209 17.824644l0 176.51343c0 13.9219055 -11.285919 25.207855 -25.207855 25.207855l-100.828384 0c-13.9219055 0 -25.20784 -11.28595 -25.20784 -25.207855z" fill-rule="evenodd"/><path fill="#ffffff" d="m396.12625 43.929638l0 0c0 -13.921913 11.28595 -25.207853 25.207855 -25.207853l100.82837 0l0 0c6.685547 0 13.09729 2.6558208 17.824646 7.383209c4.727417 4.7273903 7.3832397 11.139105 7.3832397 17.824644l0 176.51343c0 13.9219055 -11.28595 25.207855 -25.207886 25.207855l-100.82837 0c-13.9219055 0 -25.207855 -11.28595 -25.207855 -25.207855z" fill-rule="evenodd"/><path stroke="#000000" stroke-width="2.0" stroke-linejoin="round" stroke-linecap="butt" d="m396.12625 43.929638l0 0c0 -13.921913 11.28595 -25.207853 25.207855 -25.207853l100.82837 0l0 0c6.685547 0 13.09729 2.6558208 17.824646 7.383209c4.727417 4.7273903 7.3832397 11.139105 7.3832397 17.824644l0 176.51343c0 13.9219055 -11.28595 25.207855 -25.207886 25.207855l-100.82837 0c-13.9219055 0 -25.207855 -11.28595 -25.207855 -25.207855z" fill-rule="evenodd"/><path fill="#ffffff" d="m585.3456 43.929638l0 0c0 -13.921913 11.28595 -25.207853 25.207825 -25.207853l100.82843 0l0 0c6.685547 0 13.097229 2.6558208 17.824646 7.383209c4.727356 4.7273903 7.3831787 11.139105 7.3831787 17.824644l0 176.51343c0 13.9219055 -11.28595 25.207855 -25.207825 25.207855l-100.82843 0c-13.921875 0 -25.207825 -11.28595 -25.207825 -25.207855z" fill-rule="evenodd"/><path stroke="#000000" stroke-width="2.0" stroke-linejoin="round" stroke-linecap="butt" d="m585.3456 43.929638l0 0c0 -13.921913 11.28595 -25.207853 25.207825 -25.207853l100.82843 0l0 0c6.685547 0 13.097229 2.6558208 17.824646 7.383209c4.727356 4.7273903 7.3831787 11.139105 7.3831787 17.824644l0 176.51343c0 13.9219055 -11.28595 25.207855 -25.207825 25.207855l-100.82843 0c-13.921875 0 -25.207825 -11.28595 -25.207825 -25.207855z" fill-rule="evenodd"/><path fill="#cc0000" d="m774.5649 43.929638l0 0c0 -13.921913 11.28595 -25.207853 25.207886 -25.207853l100.82837 0l0 0c6.685547 0 13.097229 2.6558208 17.824646 7.383209c4.727417 4.7273903 7.3832397 11.139105 7.3832397 17.824644l0 176.51343c0 13.9219055 -11.28595 25.207855 -25.207886 25.207855l-100.82837 0c-13.921936 0 -25.207886 -11.28595 -25.207886 -25.207855z" fill-rule="evenodd"/><path stroke="#000000" stroke-width="2.0" stroke-linejoin="round" stroke-linecap="butt" d="m774.5649 43.929638l0 0c0 -13.921913 11.28595 -25.207853 25.207886 -25.207853l100.82837 0l0 0c6.685547 0 13.097229 2.6558208 17.824646 7.383209c4.727417 4.7273903 7.3832397 11.139105 7.3832397 17.824644l0 176.51343c0 13.9219055 -11.28595 25.207855 -25.207886 25.207855l-100.82837 0c-13.921936 0 -25.207886 -11.28595 -25.207886 -25.207855z" fill-rule="evenodd"/><path fill="#000000" fill-opacity="0.0" d="m46.77755 64.31233l95.527565 0l0 135.74803l-95.527565 0z" fill-rule="evenodd"/><path fill="#000000" d="m84.74445 133.59734l0 -1.640625q5.34375 -1.546875 7.40625 -2.875q2.0625 -1.3437576 3.5625 -4.0781326q1.5 -2.75 1.5 -5.5625q0 -3.890625 -2.84375 -6.671875q-2.828125 -2.796875 -7.046875 -2.796875q-6.5625 0 -11.15625 6.9375l-1.734375 -0.609375q3.375 -7.828125 8.640625 -11.765625q5.28125 -3.9375 11.75 -3.9375q6.609375 0 10.890625 4.03125q4.296875 4.03125 4.296875 9.421875q0 3.515625 -2.0 6.78125q-1.984375 3.25 -6.25 5.734375q5.484375 2.6718826 8.359375 6.5937576q2.890625 3.90625 2.890625 9.8125q0 9.9375 -7.203125 16.90625q-7.1875 6.953125 -19.28125 6.953125q-8.0625 0 -11.765625 -2.671875q-2.671875 -1.875 -2.671875 -4.828125q0 -2.15625 1.546875 -3.671875q1.546875 -1.53125 3.5625 -1.53125q1.546875 0 2.90625 0.65625q0.75 0.375 5.3125 4.109375q4.578125 3.71875 8.5625 3.71875q3.46875 0 5.953125 -2.734375q2.484375 -2.75 2.484375 -6.96875q0 -6.421875 -4.5 -11.828125q-4.5 -5.421875 -13.171875 -7.484375z" fill-rule="nonzero"/><path fill="#000000" fill-opacity="0.0" d="m427.905 64.31233l87.68503 0l0 135.74803l-87.68503 0z" fill-rule="evenodd"/><path fill="#000000" d="m462.3725 101.90983l29.765625 0l-4.734375 12.09375l-25.03125 0l-2.390625 6.328125q16.171875 0.609375 24.890625 8.062508q7.171875 6.140625 7.171875 15.28125q0 5.859375 -3.328125 11.46875q-3.328125 5.59375 -9.375 8.625q-6.046875 3.015625 -13.265625 3.015625q-7.78125 0 -11.953125 -2.90625q-2.90625 -2.0625 -2.90625 -4.6875q0 -2.015625 1.515625 -3.5625q1.53125 -1.546875 3.546875 -1.546875q1.828125 0 3.703125 0.75q1.875 0.75 6.421875 3.9375q2.859375 1.96875 4.921875 2.71875q1.453125 0.5625 3.28125 0.5625q3.84375 0 6.53125 -2.8125q2.703125 -2.8125 2.703125 -6.75q0 -8.25 -8.25 -13.40625q-8.25 -5.15625 -20.8125 -5.15625q-1.265625 0 -3.796875 0.046875l11.390625 -32.062508z" fill-rule="nonzero"/><path fill="#000000" fill-opacity="0.0" d="m609.35376 64.31233l95.52753 0l0 135.74803l-95.52753 0z" fill-rule="evenodd"/><path fill="#000000" d="m665.83624 129.56609q6.703125 4.921875 9.296875 9.171875q2.609375 4.234375 2.609375 9.71875q0 7.6875 -5.796875 13.015625q-5.78125 5.3125 -15.71875 5.3125q-9.421875 0 -14.578125 -4.640625q-5.15625 -4.640625 -5.15625 -11.34375q0 -5.109375 2.96875 -8.953125q2.984375 -3.84375 9.921875 -7.03125q-7.546875 -5.765625 -9.6875 -9.421883q-2.125 -3.65625 -2.125 -8.484375q0 -6.375 5.40625 -11.21875q5.421875 -4.859375 14.84375 -4.859375q9.09375 0 13.984375 4.296875q4.90625 4.28125 4.90625 10.28125q0 4.5 -2.65625 7.953125q-2.640625 3.4375 -8.21875 6.2031326zm-3.5625 -2.3906326q1.734375 -2.34375 2.578125 -5.25q0.84375 -2.90625 0.84375 -6.375q0 -6.09375 -2.625 -9.328125q-1.96875 -2.484375 -5.4375 -2.484375q-3.140625 0 -5.34375 2.28125q-2.203125 2.265625 -2.203125 5.640625q0 3.421875 2.453125 7.109375q2.46875 3.671875 9.734375 8.40625zm-9.375 9.890633q-1.453125 1.3125 -2.0625 2.390625q-0.9375 1.640625 -1.6875 4.78125q-0.75 3.140625 -0.75 6.5625q0 4.40625 1.125 7.390625q1.125 2.96875 3.203125 4.28125q2.09375 1.3125 4.296875 1.3125q3.421875 0 5.765625 -2.5q2.34375 -2.515625 2.34375 -6.875q0 -9.09375 -12.234375 -17.34375z" fill-rule="nonzero"/></g></svg>