<svg version="1.1" viewBox="0.0 0.0 207.8740157480315 151.1811023622047" fill="none" stroke="none" stroke-linecap="square" stroke-miterlimit="10" xmlns:xlink="http://www.w3.org/1999/xlink" xmlns="http://www.w3.org/2000/svg"><clipPath id="p.0"><path d="m0 0l207.87401 0l0 151.1811l-207.87401 0l0 -151.1811z" clip-rule="nonzero"/></clipPath><g clip-path="url(#p.0)"><path fill="#000000" fill-opacity="0.0" d="m0 0l207.87401 0l0 151.1811l-207.87401 0z" fill-rule="evenodd"/><path fill="#000000" fill-opacity="0.0" d="m18.897638 75.385826l0 0c0 -31.197563 25.396383 -56.48819 56.72441 -56.48819l0 0c15.0442505 0 29.47232 5.951416 40.110214 16.545008c10.637894 10.59359 16.61419 24.961582 16.61419 39.94318l0 0c0 31.197563 -25.396378 56.488182 -56.724403 56.488182l0 0c-31.328026 0 -56.72441 -25.290619 -56.72441 -56.488182z" fill-rule="evenodd"/><path stroke="#000000" stroke-width="1.0" stroke-linejoin="round" stroke-linecap="butt" d="m18.897638 75.385826l0 0c0 -31.197563 25.396383 -56.48819 56.72441 -56.48819l0 0c15.0442505 0 29.47232 5.951416 40.110214 16.545008c10.637894 10.59359 16.61419 24.961582 16.61419 39.94318l0 0c0 31.197563 -25.396378 56.488182 -56.724403 56.488182l0 0c-31.328026 0 -56.72441 -25.290619 -56.72441 -56.488182z" fill-rule="evenodd"/><path fill="#000000" fill-opacity="0.0" d="m33.470753 58.638954l35.401577 0l0 38.708664l-35.401577 0z" fill-rule="evenodd"/><path fill="#000000" d="m42.720753 63.873955l1.25 0.1875q0.6875 0.25 -0.3125 0.5l0 0.8125q0.8125 8.125 7.1875 10.5625q-0.875 0 -1.75 0.75q-4.75 -3.0 -5.6875 -10.3125q-0.1875 4.3125 -1.75 6.8125q-1.5625 2.5 -5.125 4.0625q-0.375 0.0625 -0.125 -0.25q3.3125 -1.875 4.625 -4.3125q1.5 -2.8125 1.6875 -6.75l0 -2.0625z" fill-rule="nonzero"/><path fill="#000000" fill-opacity="0.0" d="m75.52678 75.783554l0 0c0 -31.197563 25.396385 -56.48819 56.72441 -56.48819l0 0c15.0442505 0 29.47232 5.951416 40.110214 16.545008c10.637894 10.59359 16.614197 24.961582 16.614197 39.94318l0 0c0 31.197563 -25.396393 56.48819 -56.72441 56.48819l0 0c-31.328026 0 -56.72441 -25.290627 -56.72441 -56.48819z" fill-rule="evenodd"/><path stroke="#000000" stroke-width="1.0" stroke-linejoin="round" stroke-linecap="butt" d="m75.52678 75.783554l0 0c0 -31.197563 25.396385 -56.48819 56.72441 -56.48819l0 0c15.0442505 0 29.47232 5.951416 40.110214 16.545008c10.637894 10.59359 16.614197 24.961582 16.614197 39.94318l0 0c0 31.197563 -25.396393 56.48819 -56.72441 56.48819l0 0c-31.328026 0 -56.72441 -25.290627 -56.72441 -56.48819z" fill-rule="evenodd"/><path fill="#000000" fill-opacity="0.0" d="m145.93022 46.41931l28.094482 0l0 58.078743l-28.094482 0z" fill-rule="evenodd"/><path fill="#000000" d="m148.36772 56.154312q1.75 -0.8125 3.5625 -2.375q2.25 -1.875 3.375 -3.5625l0.8125 0.375q0.8125 0.375 0.0625 0.5q2.25 2.375 6.875 4.0q-0.4375 0.25 -0.8125 1.0q-3.8125 -1.875 -6.4375 -4.875q-2.1875 2.3125 -4.75 3.9375l0.5 0.4375l8.25 0l0.375 -0.375l0.8125 0.5625q0.5625 0.375 -0.25 0.375l0 3.1875q-0.8125 0.75 -0.8125 0.0625l0 -0.5l-8.5 0l0 0.375q-0.8125 0.75 -0.8125 0.0625l0 -4.0q-1.25 0.8125 -2.25 1.0625q-0.375 0 0 -0.25zm4.75 1.4375q-0.1875 -0.6875 -0.6875 -1.1875q-0.125 -0.1875 0.125 -0.125q0.9375 0.375 1.375 1.0625q0.1875 0.6875 -0.25 0.8125q-0.375 0.0625 -0.5625 -0.5625zm-0.3125 7.375q-0.8125 0.75 -0.8125 0.0625l0 -5.375l0.9375 0.4375l5.5 0l0.4375 -0.4375l0.625 0.375q0.625 0.375 -0.125 0.5625l0 4.375q-0.8125 0.75 -0.8125 0.0625l0 -0.5625l-5.75 0l0 0.5zm0 -2.75l5.75 0l0 -1.75l-5.75 0l0 1.75zm5.75 0.375l-5.75 0l0 1.5l5.75 0l0 -1.5zm1.375 -6.625l-3.8125 0l0 2.5625l1.25 0l0.5625 -2.25l0.875 0.375q0.6875 0.3125 -0.125 0.375l-0.9375 1.5l2.1875 0l0 -2.5625zm-4.625 0l-3.875 0l0 2.5625l3.875 0l0 -2.5625zm-2.3125 -1.8125l3.9375 0l0.75 -0.75l0.875 0.6875q0.375 0.3125 0 0.4375l-5.5625 0l0 -0.375z" fill-rule="nonzero"/><path fill="#000000" d="m152.24272 75.29182q-0.4375 1.0 -1.0625 1.875q1.3125 0.5 2.0625 1.0625q0.4375 0.4375 0.375 0.6875q0.75 -1.375 1.0625 -3.625l-2.4375 0zm4.5625 -3.1875l-3.5625 0q-0.3125 1.3125 -0.875 2.8125l2.25 0l0.5625 -0.5625l0.9375 0.9375q0.3125 0.4375 -0.5625 0.4375q-1.1875 5.9375 -6.1875 7.75q-0.5 0.0625 -0.1875 -0.25q2.9375 -1.5625 4.1875 -3.75q-0.375 0.25 -0.6875 -0.1875q-0.625 -1.25 -1.625 -1.9375q-0.9375 1.375 -1.9375 2.1875q-0.375 0.125 -0.1875 -0.25q2.5625 -2.8125 3.4375 -7.1875l-2.9375 0l0 -0.375l11.3125 0l0.9375 -0.9375l1.1875 0.875q0.375 0.3125 0 0.4375l-5.25 0l0 5.125q2.5625 -1.5625 3.6875 -2.875l0.875 0.6875q0.6875 0.625 -0.625 0.4375q-2.4375 1.4375 -3.9375 2.1875l0 4.375q0 0.25 0.25 0.25l3.6875 0q0.625 0 0.6875 -0.4375l0.375 -1.9375q0.125 -0.125 0.1875 0l0 1.9375q0 0.3125 0.25 0.4375q0.4375 0.1875 0 0.5625q-0.1875 0.1875 -1.125 0.1875l-4.375 0q-0.75 0 -0.75 -0.75l0 -10.1875z" fill-rule="nonzero"/></g></svg>