<svg version="1.1" viewBox="0.0 0.0 207.8740157480315 151.1811023622047" fill="none" stroke="none" stroke-linecap="square" stroke-miterlimit="10" xmlns:xlink="http://www.w3.org/1999/xlink" xmlns="http://www.w3.org/2000/svg"><clipPath id="p.0"><path d="m0 0l207.87401 0l0 151.1811l-207.87401 0l0 -151.1811z" clip-rule="nonzero"/></clipPath><g clip-path="url(#p.0)"><path fill="#000000" fill-opacity="0.0" d="m0 0l207.87401 0l0 151.1811l-207.87401 0z" fill-rule="evenodd"/><path fill="#000000" fill-opacity="0.0" d="m18.897638 75.385826l0 0c0 -31.197563 25.403433 -56.48819 56.740158 -56.48819l0 0c15.048424 0 29.480507 5.951416 40.121353 16.545008c10.640839 10.59359 16.618813 24.961582 16.618813 39.94318l0 0c0 31.197563 -25.403442 56.488182 -56.740166 56.488182l0 0c-31.336723 0 -56.740158 -25.290619 -56.740158 -56.488182z" fill-rule="evenodd"/><path stroke="#666666" stroke-width="2.0" stroke-linejoin="round" stroke-linecap="butt" d="m18.897638 75.385826l0 0c0 -31.197563 25.403433 -56.48819 56.740158 -56.48819l0 0c15.048424 0 29.480507 5.951416 40.121353 16.545008c10.640839 10.59359 16.618813 24.961582 16.618813 39.94318l0 0c0 31.197563 -25.403442 56.488182 -56.740166 56.488182l0 0c-31.336723 0 -56.740158 -25.290619 -56.740158 -56.488182z" fill-rule="evenodd"/><path fill="#000000" fill-opacity="0.0" d="m42.118042 65.657875l26.015747 0l0 27.937012l-26.015747 0z" fill-rule="evenodd"/><path fill="#000000" d="m51.368042 70.892876l1.25 0.1875q0.6875 0.25 -0.3125 0.5l0 0.8125q0.8125 8.125 7.1875 10.5625q-0.875 0 -1.75 0.75q-4.75 -3.0 -5.6875 -10.3125q-0.1875 4.3125 -1.75 6.8125q-1.5625 2.5 -5.125 4.0625q-0.375 0.0625 -0.125 -0.25q3.3125 -1.875 4.625 -4.3125q1.5 -2.8125 1.6875 -6.75l0 -2.0625z" fill-rule="nonzero"/><path fill="#000000" fill-opacity="0.0" d="m75.65324 75.783394l0 0c0 -31.197563 25.36818 -56.488186 56.661415 -56.488186l0 0c15.027542 0 29.43959 5.951418 40.065674 16.54501c10.626083 10.59359 16.595749 24.961582 16.595749 39.943176l0 0c0 31.19757 -25.36818 56.488197 -56.661423 56.488197l0 0c-31.293236 0 -56.661415 -25.290627 -56.661415 -56.488197z" fill-rule="evenodd"/><path stroke="#000000" stroke-width="1.0" stroke-linejoin="round" stroke-linecap="butt" d="m75.65324 75.783394l0 0c0 -31.197563 25.36818 -56.488186 56.661415 -56.488186l0 0c15.027542 0 29.43959 5.951418 40.065674 16.54501c10.626083 10.59359 16.595749 24.961582 16.595749 39.943176l0 0c0 31.19757 -25.36818 56.488197 -56.661423 56.488197l0 0c-31.293236 0 -56.661415 -25.290627 -56.661415 -56.488197z" fill-rule="evenodd"/><path fill="#000000" fill-opacity="0.0" d="m145.94226 46.409733l28.094482 0l0 54.96063l-28.094482 0z" fill-rule="evenodd"/><path fill="#000000" d="m148.37976 56.144733q1.75 -0.8125 3.5625 -2.375q2.25 -1.875 3.375 -3.5625l0.8125 0.375q0.8125 0.375 0.0625 0.5q2.25 2.375 6.875 4.0q-0.4375 0.25 -0.8125 1.0q-3.8125 -1.875 -6.4375 -4.875q-2.1875 2.3125 -4.75 3.9375l0.5 0.4375l8.25 0l0.375 -0.375l0.8125 0.5625q0.5625 0.375 -0.25 0.375l0 3.1875q-0.8125 0.75 -0.8125 0.0625l0 -0.5l-8.5 0l0 0.375q-0.8125 0.75 -0.8125 0.0625l0 -4.0q-1.25 0.8125 -2.25 1.0625q-0.375 0 0 -0.25zm4.75 1.4375q-0.1875 -0.6875 -0.6875 -1.1875q-0.125 -0.1875 0.125 -0.125q0.9375 0.375 1.375 1.0625q0.1875 0.6875 -0.25 0.8125q-0.375 0.0625 -0.5625 -0.5625zm-0.3125 7.375004q-0.8125 0.75 -0.8125 0.0625l0 -5.375004l0.9375 0.4375l5.5 0l0.4375 -0.4375l0.625 0.375q0.625 0.375 -0.125 0.5625l0 4.375004q-0.8125 0.75 -0.8125 0.0625l0 -0.5625l-5.75 0l0 0.5zm0 -2.7500038l5.75 0l0 -1.75l-5.75 0l0 1.75zm5.75 0.375l-5.75 0l0 1.5000038l5.75 0l0 -1.5000038zm1.375 -6.625l-3.8125 0l0 2.5625l1.25 0l0.5625 -2.25l0.875 0.375q0.6875 0.3125 -0.125 0.375l-0.9375 1.5l2.1875 0l0 -2.5625zm-4.625 0l-3.875 0l0 2.5625l3.875 0l0 -2.5625zm-2.3125 -1.8125l3.9375 0l0.75 -0.75l0.875 0.6875q0.375 0.3125 0 0.4375l-5.5625 0l0 -0.375z" fill-rule="nonzero"/><path fill="#000000" d="m152.25476 75.282234q-0.4375 1.0 -1.0625 1.875q1.3125 0.5 2.0625 1.0625q0.4375 0.4375 0.375 0.6875q0.75 -1.375 1.0625 -3.625l-2.4375 0zm4.5625 -3.1875l-3.5625 0q-0.3125 1.3125 -0.875 2.8125l2.25 0l0.5625 -0.5625l0.9375 0.9375q0.3125 0.4375 -0.5625 0.4375q-1.1875 5.9375 -6.1875 7.75q-0.5 0.0625 -0.1875 -0.25q2.9375 -1.5625 4.1875 -3.75q-0.375 0.25 -0.6875 -0.1875q-0.625 -1.25 -1.625 -1.9375q-0.9375 1.375 -1.9375 2.1875q-0.375 0.125 -0.1875 -0.25q2.5625 -2.8125 3.4375 -7.1875l-2.9375 0l0 -0.375l11.3125 0l0.9375 -0.9375l1.1875 0.875q0.375 0.3125 0 0.4375l-5.25 0l0 5.125q2.5625 -1.5625 3.6875 -2.875l0.875 0.6875q0.6875 0.625 -0.625 0.4375q-2.4375 1.4375 -3.9375 2.1875l0 4.375q0 0.25 0.25 0.25l3.6875 0q0.625 0 0.6875 -0.4375l0.375 -1.9375q0.125 -0.125 0.1875 0l0 1.9375q0 0.3125 0.25 0.4375q0.4375 0.1875 0 0.5625q-0.1875 0.1875 -1.125 0.1875l-4.375 0q-0.75 0 -0.75 -0.75l0 -10.1875z" fill-rule="nonzero"/><path fill="#000000" fill-opacity="0.0" d="m81.660706 24.06866c3.6306763 2.0647793 7.2729263 4.1172047 11.0121 5.9802" fill-rule="evenodd"/><path stroke="#000000" stroke-width="1.0" stroke-linejoin="round" stroke-linecap="butt" d="m81.660706 24.06866c3.6306763 2.0647793 7.2729263 4.1172047 11.0121 5.9802" fill-rule="evenodd"/><path fill="#000000" fill-opacity="0.0" d="m70.147705 23.07212c6.750534 2.798891 13.811188 5.41753 19.520134 9.966999" fill-rule="evenodd"/><path stroke="#000000" stroke-width="1.0" stroke-linejoin="round" stroke-linecap="butt" d="m70.147705 23.07212c6.750534 2.798891 13.811188 5.41753 19.520134 9.966999" fill-rule="evenodd"/><path fill="#000000" fill-opacity="0.0" d="m63.13899 25.0652c7.9282494 2.631134 15.359936 6.6784935 22.523434 10.963699" fill-rule="evenodd"/><path stroke="#000000" stroke-width="1.0" stroke-linejoin="round" stroke-linecap="butt" d="m63.13899 25.0652c7.9282494 2.631134 15.359936 6.6784935 22.523434 10.963699" fill-rule="evenodd"/><path fill="#000000" fill-opacity="0.0" d="m55.62834 27.058279c10.37014 2.210472 19.94143 7.519186 29.031898 12.957102" fill-rule="evenodd"/><path stroke="#000000" stroke-width="1.0" stroke-linejoin="round" stroke-linecap="butt" d="m55.62834 27.058279c10.37014 2.210472 19.94143 7.519186 29.031898 12.957102" fill-rule="evenodd"/><path fill="#000000" fill-opacity="0.0" d="m48.61963 31.044437c12.245277 0 23.168983 7.931698 34.53926 12.457443" fill-rule="evenodd"/><path stroke="#000000" stroke-width="1.0" stroke-linejoin="round" stroke-linecap="butt" d="m48.61963 31.044437c12.245277 0 23.168983 7.931698 34.53926 12.457443" fill-rule="evenodd"/><path fill="#000000" fill-opacity="0.0" d="m43.114094 34.53102c12.1630745 4.036537 25.071384 6.251873 36.538837 11.9604" fill-rule="evenodd"/><path stroke="#000000" stroke-width="1.0" stroke-linejoin="round" stroke-linecap="butt" d="m43.114094 34.53102c12.1630745 4.036537 25.071384 6.251873 36.538837 11.9604" fill-rule="evenodd"/><path fill="#000000" fill-opacity="0.0" d="m39.109116 37.023678c13.521721 3.356739 26.526451 8.587036 40.044 11.9604" fill-rule="evenodd"/><path stroke="#000000" stroke-width="1.0" stroke-linejoin="round" stroke-linecap="butt" d="m39.109116 37.023678c13.521721 3.356739 26.526451 8.587036 40.044 11.9604" fill-rule="evenodd"/><path fill="#000000" fill-opacity="0.0" d="m34.6022 41.506798c14.880081 3.7036705 30.831509 4.6341286 44.550266 11.46336" fill-rule="evenodd"/><path stroke="#000000" stroke-width="1.0" stroke-linejoin="round" stroke-linecap="butt" d="m34.6022 41.506798c14.880081 3.7036705 30.831509 4.6341286 44.550266 11.46336" fill-rule="evenodd"/><path fill="#000000" fill-opacity="0.0" d="m30.597223 43.999454c15.901339 3.9578629 31.16284 12.457443 47.553566 12.457443" fill-rule="evenodd"/><path stroke="#000000" stroke-width="1.0" stroke-linejoin="round" stroke-linecap="butt" d="m30.597223 43.999454c15.901339 3.9578629 31.16284 12.457443 47.553566 12.457443" fill-rule="evenodd"/><path fill="#000000" fill-opacity="0.0" d="m28.095423 49.978695c16.672056 0 33.07354 5.7929764 48.55204 11.9604" fill-rule="evenodd"/><path stroke="#000000" stroke-width="1.0" stroke-linejoin="round" stroke-linecap="butt" d="m28.095423 49.978695c16.672056 0 33.07354 5.7929764 48.55204 11.9604" fill-rule="evenodd"/><path fill="#000000" fill-opacity="0.0" d="m27.593489 52.96831c14.524576 4.8202477 29.197573 9.251011 44.0484 12.957104" fill-rule="evenodd"/><path stroke="#000000" stroke-width="1.0" stroke-linejoin="round" stroke-linecap="butt" d="m27.593489 52.96831c14.524576 4.8202477 29.197573 9.251011 44.0484 12.957104" fill-rule="evenodd"/><path fill="#000000" fill-opacity="0.0" d="m23.089201 58.447975c16.809378 4.183872 33.062706 10.580925 50.055 13.953796" fill-rule="evenodd"/><path stroke="#000000" stroke-width="1.0" stroke-linejoin="round" stroke-linecap="butt" d="m23.089201 58.447975c16.809378 4.183872 33.062706 10.580925 50.055 13.953796" fill-rule="evenodd"/><path fill="#000000" fill-opacity="0.0" d="m23.588509 63.930252c7.5657806 3.7662659 16.320759 4.439743 24.528263 6.4772415" fill-rule="evenodd"/><path stroke="#000000" stroke-width="1.0" stroke-linejoin="round" stroke-linecap="butt" d="m23.588509 63.930252c7.5657806 3.7662659 16.320759 4.439743 24.528263 6.4772415" fill-rule="evenodd"/><path fill="#000000" fill-opacity="0.0" d="m58.132767 72.89911c5.327179 1.0585251 10.748367 1.6751404 16.017601 2.990097" fill-rule="evenodd"/><path stroke="#000000" stroke-width="1.0" stroke-linejoin="round" stroke-linecap="butt" d="m58.132767 72.89911c5.327179 1.0585251 10.748367 1.6751404 16.017601 2.990097" fill-rule="evenodd"/><path fill="#000000" fill-opacity="0.0" d="m22.587265 70.40645c7.493492 0 14.755569 2.6725388 22.0242 4.486458" fill-rule="evenodd"/><path stroke="#000000" stroke-width="1.0" stroke-linejoin="round" stroke-linecap="butt" d="m22.587265 70.40645c7.493492 0 14.755569 2.6725388 22.0242 4.486458" fill-rule="evenodd"/><path fill="#000000" fill-opacity="0.0" d="m63.13899 78.87835c3.8171883 0.63173676 7.7567253 0.5616684 11.511333 1.4937363" fill-rule="evenodd"/><path stroke="#000000" stroke-width="1.0" stroke-linejoin="round" stroke-linecap="butt" d="m63.13899 78.87835c3.8171883 0.63173676 7.7567253 0.5616684 11.511333 1.4937363" fill-rule="evenodd"/><path fill="#000000" fill-opacity="0.0" d="m23.089201 75.38915c5.878517 0.73350525 11.593431 2.990097 17.517935 2.990097" fill-rule="evenodd"/><path stroke="#000000" stroke-width="1.0" stroke-linejoin="round" stroke-linecap="butt" d="m23.089201 75.38915c5.878517 0.73350525 11.593431 2.990097 17.517935 2.990097" fill-rule="evenodd"/><path fill="#000000" fill-opacity="0.0" d="m64.63954 83.361465c3.3927689 0.5644531 6.6744156 1.6604004 10.011002 2.4930573" fill-rule="evenodd"/><path stroke="#000000" stroke-width="1.0" stroke-linejoin="round" stroke-linecap="butt" d="m64.63954 83.361465c3.3927689 0.5644531 6.6744156 1.6604004 10.011002 2.4930573" fill-rule="evenodd"/><path fill="#000000" fill-opacity="0.0" d="m22.587265 80.87143c6.940195 0 13.717621 2.136139 20.523865 3.4871368" fill-rule="evenodd"/><path stroke="#000000" stroke-width="1.0" stroke-linejoin="round" stroke-linecap="butt" d="m22.587265 80.87143c6.940195 0 13.717621 2.136139 20.523865 3.4871368" fill-rule="evenodd"/><path fill="#000000" fill-opacity="0.0" d="m52.624607 85.354546c7.989559 1.5942307 16.12247 2.514 24.026402 4.486458" fill-rule="evenodd"/><path stroke="#000000" stroke-width="1.0" stroke-linejoin="round" stroke-linecap="butt" d="m52.624607 85.354546c7.989559 1.5942307 16.12247 2.514 24.026402 4.486458" fill-rule="evenodd"/><path fill="#000000" fill-opacity="0.0" d="m26.092934 85.354546c17.298473 2.4677353 34.080193 9.469963 51.555336 9.469963" fill-rule="evenodd"/><path stroke="#000000" stroke-width="1.0" stroke-linejoin="round" stroke-linecap="butt" d="m26.092934 85.354546c17.298473 2.4677353 34.080193 9.469963 51.555336 9.469963" fill-rule="evenodd"/><path fill="#000000" fill-opacity="0.0" d="m26.092934 91.83337c18.645058 3.7048187 39.05606 1.998642 56.0616 10.464043" fill-rule="evenodd"/><path stroke="#000000" stroke-width="1.0" stroke-linejoin="round" stroke-linecap="butt" d="m26.092934 91.83337c18.645058 3.7048187 39.05606 1.998642 56.0616 10.464043" fill-rule="evenodd"/><path fill="#000000" fill-opacity="0.0" d="m28.095423 97.8126c18.389868 0 36.983604 4.1669693 54.059402 10.963707" fill-rule="evenodd"/><path stroke="#000000" stroke-width="1.0" stroke-linejoin="round" stroke-linecap="butt" d="m28.095423 97.8126c18.389868 0 36.983604 4.1669693 54.059402 10.963707" fill-rule="evenodd"/><path fill="#000000" fill-opacity="0.0" d="m30.097914 102.7953c19.93661 2.2002945 39.602074 6.629135 59.064896 11.460739" fill-rule="evenodd"/><path stroke="#000000" stroke-width="1.0" stroke-linejoin="round" stroke-linecap="butt" d="m30.097914 102.7953c19.93661 2.2002945 39.602074 6.629135 59.064896 11.460739" fill-rule="evenodd"/><path fill="#000000" fill-opacity="0.0" d="m36.10538 107.778c18.266548 7.7902145 38.782284 8.667549 58.0638 13.45414" fill-rule="evenodd"/><path stroke="#000000" stroke-width="1.0" stroke-linejoin="round" stroke-linecap="butt" d="m36.10538 107.778c18.266548 7.7902145 38.782284 8.667549 58.0638 13.45414" fill-rule="evenodd"/><path fill="#000000" fill-opacity="0.0" d="m43.613403 115.75032c16.334225 3.2422485 32.39821 9.467339 49.0539 9.467339" fill-rule="evenodd"/><path stroke="#000000" stroke-width="1.0" stroke-linejoin="round" stroke-linecap="butt" d="m43.613403 115.75032c16.334225 3.2422485 32.39821 9.467339 49.0539 9.467339" fill-rule="evenodd"/><path fill="#000000" fill-opacity="0.0" d="m54.627094 122.7261c9.464222 2.353592 19.06747 4.1275253 28.532665 6.4772415" fill-rule="evenodd"/><path stroke="#000000" stroke-width="1.0" stroke-linejoin="round" stroke-linecap="butt" d="m54.627094 122.7261c9.464222 2.353592 19.06747 4.1275253 28.532665 6.4772415" fill-rule="evenodd"/></g></svg>