<svg version="1.1" viewBox="0.0 0.0 207.8740157480315 151.1811023622047" fill="none" stroke="none" stroke-linecap="square" stroke-miterlimit="10" xmlns:xlink="http://www.w3.org/1999/xlink" xmlns="http://www.w3.org/2000/svg"><clipPath id="p.0"><path d="m0 0l207.87401 0l0 151.1811l-207.87401 0l0 -151.1811z" clip-rule="nonzero"/></clipPath><g clip-path="url(#p.0)"><path fill="#000000" fill-opacity="0.0" d="m0 0l207.87401 0l0 151.1811l-207.87401 0z" fill-rule="evenodd"/><path fill="#000000" fill-opacity="0.0" d="m18.897638 75.385826l0 0c0 -31.197563 25.396383 -56.48819 56.72441 -56.48819l0 0c15.0442505 0 29.47232 5.951416 40.110214 16.545008c10.637894 10.59359 16.61419 24.961582 16.61419 39.94318l0 0c0 31.197563 -25.396378 56.488182 -56.724403 56.488182l0 0c-31.328026 0 -56.72441 -25.290619 -56.72441 -56.488182z" fill-rule="evenodd"/><path stroke="#666666" stroke-width="2.0" stroke-linejoin="round" stroke-linecap="butt" d="m18.897638 75.385826l0 0c0 -31.197563 25.396383 -56.48819 56.72441 -56.48819l0 0c15.0442505 0 29.47232 5.951416 40.110214 16.545008c10.637894 10.59359 16.61419 24.961582 16.61419 39.94318l0 0c0 31.197563 -25.396378 56.488182 -56.724403 56.488182l0 0c-31.328026 0 -56.72441 -25.290619 -56.72441 -56.488182z" fill-rule="evenodd"/><path fill="#000000" fill-opacity="0.0" d="m41.930756 64.72143l35.401573 0l0 42.740158l-35.401573 0z" fill-rule="evenodd"/><path fill="#000000" d="m51.180756 69.95643l1.25 0.1875q0.6875 0.25 -0.3125 0.5l0 0.8125q0.8125 8.125 7.1875 10.5625q-0.875 0 -1.75 0.75q-4.75 -3.0 -5.6875 -10.3125q-0.1875 4.3125 -1.75 6.8125q-1.5625 2.5 -5.125 4.0625q-0.375 0.0625 -0.125 -0.25q3.3125 -1.875 4.625 -4.3125q1.5 -2.8125 1.6875 -6.75l0 -2.0625z" fill-rule="nonzero"/><path fill="#000000" fill-opacity="0.0" d="m75.660545 75.78333l0 0c0 -31.197567 25.368187 -56.48819 56.661415 -56.48819l0 0c15.027542 0 29.439606 5.951416 40.065674 16.545008c10.626083 10.59359 16.595749 24.961582 16.595749 39.943184l0 0c0 31.197563 -25.36818 56.488182 -56.661423 56.488182l0 0c-31.293228 0 -56.661415 -25.290619 -56.661415 -56.488182z" fill-rule="evenodd"/><path stroke="#000000" stroke-width="1.0" stroke-linejoin="round" stroke-linecap="butt" d="m75.660545 75.78333l0 0c0 -31.197567 25.368187 -56.48819 56.661415 -56.48819l0 0c15.027542 0 29.439606 5.951416 40.065674 16.545008c10.626083 10.59359 16.595749 24.961582 16.595749 39.943184l0 0c0 31.197563 -25.36818 56.488182 -56.661423 56.488182l0 0c-31.293228 0 -56.661415 -25.290619 -56.661415 -56.488182z" fill-rule="evenodd"/><path fill="#000000" fill-opacity="0.0" d="m145.95909 46.403717l28.094482 0l0 42.740158l-28.094482 0z" fill-rule="evenodd"/><path fill="#000000" d="m148.39659 56.138718q1.75 -0.8125 3.5625 -2.375q2.25 -1.875 3.375 -3.5625l0.8125 0.375q0.8125 0.375 0.0625 0.5q2.25 2.375 6.875 4.0q-0.4375 0.25 -0.8125 1.0q-3.8125 -1.875 -6.4375 -4.875q-2.1875 2.3125 -4.75 3.9375l0.5 0.4375l8.25 0l0.375 -0.375l0.8125 0.5625q0.5625 0.375 -0.25 0.375l0 3.1875q-0.8125 0.75 -0.8125 0.0625l0 -0.5l-8.5 0l0 0.375q-0.8125 0.75 -0.8125 0.0625l0 -4.0q-1.25 0.8125 -2.25 1.0625q-0.375 0 0 -0.25zm4.75 1.4375q-0.1875 -0.6875 -0.6875 -1.1875q-0.125 -0.1875 0.125 -0.125q0.9375 0.375 1.375 1.0625q0.1875 0.6875 -0.25 0.8125q-0.375 0.0625 -0.5625 -0.5625zm-0.3125 7.375q-0.8125 0.75 -0.8125 0.0625l0 -5.375l0.9375 0.4375l5.5 0l0.4375 -0.4375l0.625 0.375q0.625 0.375 -0.125 0.5625l0 4.375q-0.8125 0.75 -0.8125 0.0625l0 -0.5625l-5.75 0l0 0.5zm0 -2.75l5.75 0l0 -1.75l-5.75 0l0 1.75zm5.75 0.375l-5.75 0l0 1.5l5.75 0l0 -1.5zm1.375 -6.625l-3.8125 0l0 2.5625l1.25 0l0.5625 -2.25l0.875 0.375q0.6875 0.3125 -0.125 0.375l-0.9375 1.5l2.1875 0l0 -2.5625zm-4.625 0l-3.875 0l0 2.5625l3.875 0l0 -2.5625zm-2.3125 -1.8125l3.9375 0l0.75 -0.75l0.875 0.6875q0.375 0.3125 0 0.4375l-5.5625 0l0 -0.375z" fill-rule="nonzero"/><path fill="#000000" d="m152.27159 75.27622q-0.4375 1.0 -1.0625 1.875q1.3125 0.5 2.0625 1.0625q0.4375 0.4375 0.375 0.6875q0.75 -1.375 1.0625 -3.625l-2.4375 0zm4.5625 -3.1875l-3.5625 0q-0.3125 1.3125 -0.875 2.8125l2.25 0l0.5625 -0.5625l0.9375 0.9375q0.3125 0.4375 -0.5625 0.4375q-1.1875 5.9375 -6.1875 7.75q-0.5 0.0625 -0.1875 -0.25q2.9375 -1.5625 4.1875 -3.75q-0.375 0.25 -0.6875 -0.1875q-0.625 -1.25 -1.625 -1.9375q-0.9375 1.375 -1.9375 2.1875q-0.375 0.125 -0.1875 -0.25q2.5625 -2.8125 3.4375 -7.1875l-2.9375 0l0 -0.375l11.3125 0l0.9375 -0.9375l1.1875 0.875q0.375 0.3125 0 0.4375l-5.25 0l0 5.125q2.5625 -1.5625 3.6875 -2.875l0.875 0.6875q0.6875 0.625 -0.625 0.4375q-2.4375 1.4375 -3.9375 2.1875l0 4.375q0 0.25 0.25 0.25l3.6875 0q0.625 0 0.6875 -0.4375l0.375 -1.9375q0.125 -0.125 0.1875 0l0 1.9375q0 0.3125 0.25 0.4375q0.4375 0.1875 0 0.5625q-0.1875 0.1875 -1.125 0.1875l-4.375 0q-0.75 0 -0.75 -0.75l0 -10.1875z" fill-rule="nonzero"/><path fill="#000000" fill-opacity="0.0" d="m81.66879 24.067778c3.6306763 2.0643654 7.2729263 4.116379 11.0121 5.979" fill-rule="evenodd"/><path stroke="#000000" stroke-width="1.0" stroke-linejoin="round" stroke-linecap="butt" d="m81.66879 24.067778c3.6306763 2.0643654 7.2729263 4.116379 11.0121 5.979" fill-rule="evenodd"/><path fill="#000000" fill-opacity="0.0" d="m70.154305 23.071407c6.7505417 2.7983303 13.811195 5.416443 19.520134 9.965" fill-rule="evenodd"/><path stroke="#000000" stroke-width="1.0" stroke-linejoin="round" stroke-linecap="butt" d="m70.154305 23.071407c6.7505417 2.7983303 13.811195 5.416443 19.520134 9.965" fill-rule="evenodd"/><path fill="#000000" fill-opacity="0.0" d="m63.14469 25.064148c7.9282455 2.6306057 15.359932 6.6771545 22.523438 10.961498" fill-rule="evenodd"/><path stroke="#000000" stroke-width="1.0" stroke-linejoin="round" stroke-linecap="butt" d="m63.14469 25.064148c7.9282455 2.6306057 15.359932 6.6771545 22.523438 10.961498" fill-rule="evenodd"/><path fill="#000000" fill-opacity="0.0" d="m55.63307 27.056887c10.37014 2.2100277 19.94143 7.5176754 29.031898 12.9545" fill-rule="evenodd"/><path stroke="#000000" stroke-width="1.0" stroke-linejoin="round" stroke-linecap="butt" d="m55.63307 27.056887c10.37014 2.2100277 19.94143 7.5176754 29.031898 12.9545" fill-rule="evenodd"/><path fill="#000000" fill-opacity="0.0" d="m48.62346 31.042366c12.245277 0 23.168983 7.9301033 34.53926 12.454941" fill-rule="evenodd"/><path stroke="#000000" stroke-width="1.0" stroke-linejoin="round" stroke-linecap="butt" d="m48.62346 31.042366c12.245277 0 23.168983 7.9301033 34.53926 12.454941" fill-rule="evenodd"/><path fill="#000000" fill-opacity="0.0" d="m43.117214 34.52835c12.1630745 4.0357285 25.071384 6.250618 36.538837 11.958" fill-rule="evenodd"/><path stroke="#000000" stroke-width="1.0" stroke-linejoin="round" stroke-linecap="butt" d="m43.117214 34.52835c12.1630745 4.0357285 25.071384 6.250618 36.538837 11.958" fill-rule="evenodd"/><path fill="#000000" fill-opacity="0.0" d="m39.11172 37.020584c13.521721 3.3560638 26.526455 8.585312 40.044003 11.958" fill-rule="evenodd"/><path stroke="#000000" stroke-width="1.0" stroke-linejoin="round" stroke-linecap="butt" d="m39.11172 37.020584c13.521721 3.3560638 26.526455 8.585312 40.044003 11.958" fill-rule="evenodd"/><path fill="#000000" fill-opacity="0.0" d="m34.604225 41.50294c14.880077 3.7029228 30.831512 4.633198 44.550262 11.461056" fill-rule="evenodd"/><path stroke="#000000" stroke-width="1.0" stroke-linejoin="round" stroke-linecap="butt" d="m34.604225 41.50294c14.880077 3.7029228 30.831512 4.633198 44.550262 11.461056" fill-rule="evenodd"/><path fill="#000000" fill-opacity="0.0" d="m30.59873 43.99517c15.901339 3.9570694 31.16284 12.454945 47.55356 12.454945" fill-rule="evenodd"/><path stroke="#000000" stroke-width="1.0" stroke-linejoin="round" stroke-linecap="butt" d="m30.59873 43.99517c15.901339 3.9570694 31.16284 12.454945 47.55356 12.454945" fill-rule="evenodd"/><path fill="#000000" fill-opacity="0.0" d="m28.09661 49.97339c16.672056 0 33.07354 5.7918167 48.552032 11.958" fill-rule="evenodd"/><path stroke="#000000" stroke-width="1.0" stroke-linejoin="round" stroke-linecap="butt" d="m28.09661 49.97339c16.672056 0 33.07354 5.7918167 48.552032 11.958" fill-rule="evenodd"/><path fill="#000000" fill-opacity="0.0" d="m27.594608 52.962498c14.524578 4.8192787 29.19757 9.249153 44.048397 12.954502" fill-rule="evenodd"/><path stroke="#000000" stroke-width="1.0" stroke-linejoin="round" stroke-linecap="butt" d="m27.594608 52.962498c14.524578 4.8192787 29.19757 9.249153 44.048397 12.954502" fill-rule="evenodd"/><path fill="#000000" fill-opacity="0.0" d="m23.08974 58.441223c16.80938 4.183037 33.062706 10.578804 50.054996 13.951004" fill-rule="evenodd"/><path stroke="#000000" stroke-width="1.0" stroke-linejoin="round" stroke-linecap="butt" d="m23.08974 58.441223c16.80938 4.183037 33.062706 10.578804 50.054996 13.951004" fill-rule="evenodd"/><path fill="#000000" fill-opacity="0.0" d="m23.589113 63.922565c7.5657806 3.7655067 16.320757 4.438854 24.528265 6.4759407" fill-rule="evenodd"/><path stroke="#000000" stroke-width="1.0" stroke-linejoin="round" stroke-linecap="butt" d="m23.589113 63.922565c7.5657806 3.7655067 16.320757 4.438854 24.528265 6.4759407" fill-rule="evenodd"/><path fill="#000000" fill-opacity="0.0" d="m58.13782 72.88989c5.327183 1.0583115 10.7483635 1.6748047 16.017597 2.989502" fill-rule="evenodd"/><path stroke="#000000" stroke-width="1.0" stroke-linejoin="round" stroke-linecap="butt" d="m58.13782 72.88989c5.327183 1.0583115 10.7483635 1.6748047 16.017597 2.989502" fill-rule="evenodd"/><path fill="#000000" fill-opacity="0.0" d="m22.58774 70.39766c7.493492 0 14.755568 2.6720047 22.024199 4.4855576" fill-rule="evenodd"/><path stroke="#000000" stroke-width="1.0" stroke-linejoin="round" stroke-linecap="butt" d="m22.58774 70.39766c7.493492 0 14.755568 2.6720047 22.024199 4.4855576" fill-rule="evenodd"/><path fill="#000000" fill-opacity="0.0" d="m63.14469 78.86811c3.8171844 0.6316147 7.7567215 0.56155396 11.511337 1.4934464" fill-rule="evenodd"/><path stroke="#000000" stroke-width="1.0" stroke-linejoin="round" stroke-linecap="butt" d="m63.14469 78.86811c3.8171844 0.6316147 7.7567215 0.56155396 11.511337 1.4934464" fill-rule="evenodd"/><path fill="#000000" fill-opacity="0.0" d="m23.08974 75.37951c5.878517 0.7333603 11.59343 2.989502 17.517937 2.989502" fill-rule="evenodd"/><path stroke="#000000" stroke-width="1.0" stroke-linejoin="round" stroke-linecap="butt" d="m23.08974 75.37951c5.878517 0.7333603 11.59343 2.989502 17.517937 2.989502" fill-rule="evenodd"/><path fill="#000000" fill-opacity="0.0" d="m64.64544 83.350464c3.3927612 0.5643463 6.674408 1.6600647 10.011002 2.4925613" fill-rule="evenodd"/><path stroke="#000000" stroke-width="1.0" stroke-linejoin="round" stroke-linecap="butt" d="m64.64544 83.350464c3.3927612 0.5643463 6.674408 1.6600647 10.011002 2.4925613" fill-rule="evenodd"/><path fill="#000000" fill-opacity="0.0" d="m22.58774 80.86085c6.940195 0 13.717619 2.1357193 20.523863 3.4864426" fill-rule="evenodd"/><path stroke="#000000" stroke-width="1.0" stroke-linejoin="round" stroke-linecap="butt" d="m22.58774 80.86085c6.940195 0 13.717619 2.1357193 20.523863 3.4864426" fill-rule="evenodd"/><path fill="#000000" fill-opacity="0.0" d="m52.628952 85.34321c7.989563 1.5939026 16.122467 2.5134888 24.026398 4.4855576" fill-rule="evenodd"/><path stroke="#000000" stroke-width="1.0" stroke-linejoin="round" stroke-linecap="butt" d="m52.628952 85.34321c7.989563 1.5939026 16.122467 2.5134888 24.026398 4.4855576" fill-rule="evenodd"/><path fill="#000000" fill-opacity="0.0" d="m26.09386 85.34321c17.298473 2.4672318 34.080193 9.468056 51.55534 9.468056" fill-rule="evenodd"/><path stroke="#000000" stroke-width="1.0" stroke-linejoin="round" stroke-linecap="butt" d="m26.09386 85.34321c17.298473 2.4672318 34.080193 9.468056 51.55534 9.468056" fill-rule="evenodd"/><path fill="#000000" fill-opacity="0.0" d="m26.09386 91.820915c18.645058 3.7040787 39.056065 1.9982452 56.061604 10.461945" fill-rule="evenodd"/><path stroke="#000000" stroke-width="1.0" stroke-linejoin="round" stroke-linecap="butt" d="m26.09386 91.820915c18.645058 3.7040787 39.056065 1.9982452 56.061604 10.461945" fill-rule="evenodd"/><path fill="#000000" fill-opacity="0.0" d="m28.09661 97.79913c18.389868 0 36.983597 4.1661377 54.059395 10.961502" fill-rule="evenodd"/><path stroke="#000000" stroke-width="1.0" stroke-linejoin="round" stroke-linecap="butt" d="m28.09661 97.79913c18.389868 0 36.983597 4.1661377 54.059395 10.961502" fill-rule="evenodd"/><path fill="#000000" fill-opacity="0.0" d="m30.099356 102.78098c19.936613 2.199852 39.602074 6.6278076 59.064896 11.458443" fill-rule="evenodd"/><path stroke="#000000" stroke-width="1.0" stroke-linejoin="round" stroke-linecap="butt" d="m30.099356 102.78098c19.936613 2.199852 39.602074 6.6278076 59.064896 11.458443" fill-rule="evenodd"/><path fill="#000000" fill-opacity="0.0" d="m36.107597 107.76283c18.266548 7.7886505 38.78228 8.66581 58.063805 13.451439" fill-rule="evenodd"/><path stroke="#000000" stroke-width="1.0" stroke-linejoin="round" stroke-linecap="butt" d="m36.107597 107.76283c18.266548 7.7886505 38.78228 8.66581 58.063805 13.451439" fill-rule="evenodd"/><path fill="#000000" fill-opacity="0.0" d="m43.61659 115.73379c16.334225 3.2416 32.398205 9.465446 49.053898 9.465446" fill-rule="evenodd"/><path stroke="#000000" stroke-width="1.0" stroke-linejoin="round" stroke-linecap="butt" d="m43.61659 115.73379c16.334225 3.2416 32.398205 9.465446 49.053898 9.465446" fill-rule="evenodd"/><path fill="#000000" fill-opacity="0.0" d="m54.6317 122.70838c9.464218 2.353119 19.067474 4.1266937 28.532661 6.4759445" fill-rule="evenodd"/><path stroke="#000000" stroke-width="1.0" stroke-linejoin="round" stroke-linecap="butt" d="m54.6317 122.70838c9.464218 2.353119 19.067474 4.1266937 28.532661 6.4759445" fill-rule="evenodd"/><path fill="#000000" d="m99.272995 55.921627l0 0c0 -2.600521 2.2562027 -4.70866 5.0393677 -4.70866l0 0c2.783165 0 5.0393677 2.108139 5.0393677 4.70866l0 0c0 2.600525 -2.2562027 4.708664 -5.0393677 4.708664l0 0c-2.783165 0 -5.0393677 -2.108139 -5.0393677 -4.708664z" fill-rule="evenodd"/><path stroke="#000000" stroke-width="1.0" stroke-linejoin="round" stroke-linecap="butt" d="m99.272995 55.921627l0 0c0 -2.600521 2.2562027 -4.70866 5.0393677 -4.70866l0 0c2.783165 0 5.0393677 2.108139 5.0393677 4.70866l0 0c0 2.600525 -2.2562027 4.708664 -5.0393677 4.708664l0 0c-2.783165 0 -5.0393677 -2.108139 -5.0393677 -4.708664z" fill-rule="evenodd"/><path fill="#000000" fill-opacity="0.0" d="m83.92126 59.211903l40.0315 0l0 21.322834l-40.0315 0z" fill-rule="evenodd"/><path fill="#000000" d="m96.37451 71.57191q1.9375 -2.0625 3.0625 -5.5l0.9375 0.4375q0.5 0.375 -0.4375 0.4375q-0.1875 0.4375 -0.4375 0.875l2.3125 0l0.4375 -0.4375l0.9375 0.4375q0.5625 0.4375 -0.5625 0.375l-1.25 1.5625l1.375 0l0.375 -0.5l0.875 0.625q0.375 0.3125 -0.25 0.4375l0 4.0q-0.8125 0.75 -0.8125 0.0625l0 -0.4375l-4.125 0l0 0.375q-0.8125 0.75 -0.8125 0.0625l0 -4.0q-0.625 0.8125 -1.375 1.3125q-0.25 0.1875 -0.25 -0.125zm13.9375 4.25q-1.625 -1.625 -2.5 -3.875l0 5.625q-0.8125 0.75 -0.8125 0.0625l0 -5.375q-1.3125 1.8125 -2.6875 2.8125q-0.375 0.125 -0.1875 -0.1875q1.875 -1.9375 2.75 -3.8125l-2.5 0l0 -0.375l2.625 0l0 -2.4375q-1.5 0.375 -2.8125 0.4375q-0.25 -0.125 0 -0.25q2.4375 -0.4375 5.125 -1.6875l0.9375 0.5q0.3125 0.3125 -0.6875 0.25q-0.6875 0.25 -1.75 0.5625l0 2.625l1.6875 0l0.8125 -0.8125l1.0 0.75q0.375 0.3125 0 0.4375l-3.375 0q0.625 2.3125 3.375 4.125q-0.5 0.0625 -1.0 0.625zm-7.1875 -0.5625q-0.1875 -0.25 0.125 -0.25q1.6875 0.75 1.6875 1.9375q0 0.5625 -0.3125 0.5625q-0.375 0 -0.5625 -0.625q-0.25 -1.0625 -0.9375 -1.625zm-1.4375 1.5q0 -0.9375 -0.4375 -1.5q0 -0.3125 0.25 -0.125q0.9375 0.8125 1.0 1.8125q0.0625 0.875 -0.4375 0.875q-0.25 0 -0.3125 -0.1875q-0.0625 -0.3125 -0.0625 -0.875zm-1.875 -1.5625q0.5 0.8125 0.4375 1.75q-0.0625 0.9375 -0.5625 0.9375q-0.3125 0 -0.3125 -0.375q0 -0.25 0.1875 -1.0q0.0625 -0.6875 -0.0625 -1.3125q0.125 -0.25 0.3125 0zm-2.75 1.5625q0.75 -0.6875 0.8125 -1.625q0.125 -0.25 0.25 0q0.1875 1.25 -0.3125 2.125q-0.25 0.4375 -0.75 0.4375q-0.375 0 -0.375 -0.375q0 -0.1875 0.375 -0.5625zm5.875 -6.625l-1.75 0l0 1.5l1.75 0l0 -1.5zm-3.625 -1.9375q-0.3125 0.625 -0.75 1.3125l0.375 0.25l2.0625 0l0.875 -1.5625l-2.5625 0zm-0.5 3.4375l1.5625 0l0 -1.5l-1.5625 0l0 1.5zm2.375 1.9375l1.75 0l0 -1.5625l-1.75 0l0 1.5625zm-2.375 0l1.5625 0l0 -1.5625l-1.5625 0l0 1.5625zm2.5 -8.5l0 -1.6250038l1.0625 0.1875q0.5 0.3125 -0.25 0.4375038l0 1.0l3.4375 0l0 -1.6250038l1.0625 0.1875q0.5 0.3125 -0.25 0.4375038l0 1.0l2.6875 0l0.8125 -0.8125l1.0 0.75q0.375 0.3125 0 0.4375l-4.5 0l0 1.25q-0.8125 0.75 -0.8125 0.0625l0 -1.3125l-3.4375 0l0 1.25q-0.8125 0.75 -0.8125 0.0625l0 -1.3125l-4.375 0l0 -0.375l4.375 0z" fill-rule="nonzero"/></g></svg>