<svg version="1.1" viewBox="0.0 0.0 207.8740157480315 151.1811023622047" fill="none" stroke="none" stroke-linecap="square" stroke-miterlimit="10" xmlns:xlink="http://www.w3.org/1999/xlink" xmlns="http://www.w3.org/2000/svg"><clipPath id="p.0"><path d="m0 0l207.87401 0l0 151.1811l-207.87401 0l0 -151.1811z" clip-rule="nonzero"/></clipPath><g clip-path="url(#p.0)"><path fill="#000000" fill-opacity="0.0" d="m0 0l207.87401 0l0 151.1811l-207.87401 0z" fill-rule="evenodd"/><path fill="#000000" fill-opacity="0.0" d="m18.897638 75.58793l0 0c0 -31.310635 25.37523 -56.692917 56.67717 -56.692917l0 0c15.031715 0 29.447777 5.972986 40.076805 16.60497c10.629028 10.631981 16.600357 25.052048 16.600357 40.087944l0 0c0 31.31063 -25.375229 56.69291 -56.677162 56.69291l0 0c-31.301937 0 -56.67717 -25.382278 -56.67717 -56.69291z" fill-rule="evenodd"/><path stroke="#666666" stroke-width="2.0" stroke-linejoin="round" stroke-linecap="butt" d="m18.897638 75.58793l0 0c0 -31.310635 25.37523 -56.692917 56.67717 -56.692917l0 0c15.031715 0 29.447777 5.972986 40.076805 16.60497c10.629028 10.631981 16.600357 25.052048 16.600357 40.087944l0 0c0 31.31063 -25.375229 56.69291 -56.677162 56.69291l0 0c-31.301937 0 -56.67717 -25.382278 -56.67717 -56.69291z" fill-rule="evenodd"/><path fill="#000000" fill-opacity="0.0" d="m33.454067 58.75853l35.370083 0l0 38.771652l-35.370083 0z" fill-rule="evenodd"/><path fill="#000000" d="m54.079067 82.11853q0 0.5625 -0.375 0.5625q-0.1875 0 -0.3125 -0.25q-0.5 -1.3125 -1.5625 -1.9375q-0.1875 -0.125 0.0625 -0.1875q1.0 0.125 1.6875 0.8125q0.5 0.5 0.5 1.0zm2.8125 -2.125q-0.125 3.1875 -1.3125 4.125q-0.4375 0.3125 -1.0 0.375q-0.875 0.1875 -0.875 -0.3125q0.0625 -0.3125 -0.1875 -0.4375l-0.9375 -0.4375q-0.1875 -0.1875 0.0625 -0.1875l1.3125 0.3125q0.875 0.0625 1.25 -0.1875q0.6875 -0.5 0.9375 -3.4375l-9.1875 0l0 0.9375q-0.8125 0.75 -0.8125 0.0625l0 -9.3125l1.0 0.5625l1.375 0l0.25 -1.9375l1.1875 0.1875q0.5625 0.1875 -0.5 0.5l-0.6875 1.25l4.375 0l0.375 -0.5l0.875 0.625q0.375 0.3125 -0.25 0.4375l0 3.9375q-0.8125 0.75 -0.8125 0.0625l0 -0.375l-6.375 0l0 1.3125l8.5 0l0.8125 -0.8125l1.0 0.75q0.375 0.3125 0 0.4375l-10.3125 0l0 1.5l8.9375 0l0.375 -0.5625l1.0625 0.75q0.375 0.3125 -0.4375 0.375zm-7.1875 0.8125q-0.125 -0.25 0.1875 -0.125q1.5625 0.8125 1.5625 2.125q0 0.75 -0.5 0.75q-0.25 0 -0.3125 -0.3125q-0.125 -0.8125 -0.25 -1.25q-0.125 -0.625 -0.6875 -1.1875zm-2.0 0.1875q0.9375 0.875 0.9375 2.125q0 0.875 -0.625 0.875q-0.4375 0 -0.4375 -0.625q0 -0.25 0.125 -0.6875q0.1875 -0.9375 -0.1875 -1.5625q-0.125 -0.3125 0.1875 -0.125zm-2.6875 0.0625q0.125 -0.25 0.25 0q0.125 0.75 0 1.625q-0.375 1.8125 -1.5 1.8125q-0.4375 0 -0.4375 -0.4375q0 -0.25 0.375 -0.5625q0.75 -0.625 0.9375 -1.125q0.1875 -0.375 0.375 -1.3125zm8.3125 -5.1875l0 -1.5625l-6.375 0l0 1.5625l6.375 0zm0 -1.9375l0 -1.5l-6.375 0l0 1.5l6.375 0z" fill-rule="nonzero"/><path fill="#000000" fill-opacity="0.0" d="m75.58268 75.98688l0 0c0 -31.31063 25.347023 -56.692917 56.614174 -56.692917l0 0c15.015015 0 29.41504 5.972986 40.032257 16.60497c10.617218 10.631985 16.58191 25.052048 16.58191 40.087944l0 0c0 31.31063 -25.34703 56.692917 -56.614166 56.692917l0 0c-31.26715 0 -56.614174 -25.382286 -56.614174 -56.692917z" fill-rule="evenodd"/><path stroke="#000000" stroke-width="1.0" stroke-linejoin="round" stroke-linecap="butt" d="m75.58268 75.98688l0 0c0 -31.31063 25.347023 -56.692917 56.614174 -56.692917l0 0c15.015015 0 29.41504 5.972986 40.032257 16.60497c10.617218 10.631985 16.58191 25.052048 16.58191 40.087944l0 0c0 31.31063 -25.34703 56.692917 -56.614166 56.692917l0 0c-31.26715 0 -56.614174 -25.382286 -56.614174 -56.692917z" fill-rule="evenodd"/><path fill="#000000" fill-opacity="0.0" d="m145.78477 46.501312l28.094498 0l0 58.173225l-28.094498 0z" fill-rule="evenodd"/><path fill="#000000" d="m155.22227 63.236313q1.75 -0.8125 3.5625 -2.375q2.25 -1.875 3.375 -3.5625l0.8125 0.375q0.8125 0.375 0.0625 0.5q2.25 2.375 6.875 4.0q-0.4375 0.25 -0.8125 1.0q-3.8125 -1.875 -6.4375 -4.875q-2.1875 2.3125 -4.75 3.9375l0.5 0.4375l8.25 0l0.375 -0.375l0.8125 0.5625q0.5625 0.375 -0.25 0.375l0 3.1875q-0.8125 0.75 -0.8125 0.0625l0 -0.5l-8.5 0l0 0.375q-0.8125 0.75 -0.8125 0.0625l0 -4.0q-1.25 0.8125 -2.25 1.0625q-0.375 0 0 -0.25zm4.75 1.4375q-0.1875 -0.6875 -0.6875 -1.1875q-0.125 -0.1875 0.125 -0.125q0.9375 0.375 1.375 1.0625q0.1875 0.6875 -0.25 0.8125q-0.375 0.0625 -0.5625 -0.5625zm-0.3125 7.375q-0.8125 0.75 -0.8125 0.0625l0 -5.375l0.9375 0.4375l5.5 0l0.4375 -0.4375l0.625 0.375q0.625 0.375 -0.125 0.5625l0 4.375q-0.8125 0.75 -0.8125 0.0625l0 -0.5625l-5.75 0l0 0.5zm0 -2.75l5.75 0l0 -1.75l-5.75 0l0 1.75zm5.75 0.375l-5.75 0l0 1.5l5.75 0l0 -1.5zm1.375 -6.625l-3.8125 0l0 2.5625l1.25 0l0.5625 -2.25l0.875 0.375q0.6875 0.3125 -0.125 0.375l-0.9375 1.5l2.1875 0l0 -2.5625zm-4.625 0l-3.875 0l0 2.5625l3.875 0l0 -2.5625zm-2.3125 -1.8125l3.9375 0l0.75 -0.75l0.875 0.6875q0.375 0.3125 0 0.4375l-5.5625 0l0 -0.375z" fill-rule="nonzero"/><path fill="#000000" d="m168.09727 88.31132q-0.25 0 -0.4375 -0.1875q-0.8125 -0.75 -2.25 -1.125q0.75 2.4375 2.6875 2.8125q0.3125 0.0625 0.5 -0.125l0.75 -1.75q0.25 -0.4375 0.1875 0.0625l-0.3125 1.6875q-0.0625 0.375 0.25 0.625q0.3125 0.375 -0.1875 0.5q-1.3125 0.125 -2.5625 -0.625q-2.375 -1.625 -2.375 -5.625l0 -0.375l-1.625 0l0 6.875q-0.8125 0.75 -0.8125 0.0625l0 -6.9375l-2.5 0l0 0.8125q0 4.125 -3.4375 6.25q-0.375 0.125 -0.1875 -0.25q2.8125 -2.1875 2.8125 -5.625l0 -1.1875l-3.125 0l0 -0.375l3.125 0l0 -2.5q-2.125 0.8125 -3.0625 1.0q-0.4375 0 -0.125 -0.25q2.625 -0.875 4.6875 -2.4375l0.9375 0.625q0.5 0.375 -0.4375 0.25l-1.1875 0.5l0 2.8125l2.5 0l0 -4.375l1.0625 0.1875q0.5 0.3125 -0.25 0.4375l0 3.75l1.4375 0l0.375 -0.5l0.875 0.625q0.375 0.3125 -0.25 0.4375l0 0.375q0 0.9375 0.1875 1.9375q0.8125 -1.125 1.1875 -2.0l0.75 0.4375q0.5 0.4375 -0.25 0.3125l-1.5 1.375q2.8125 0.125 2.8125 1.125q0 0.375 -0.25 0.375zm-1.9375 -9.9375q0.375 0.3125 -0.25 0.4375l0 0.625q0 0.5625 0.0625 0.8125l0.25 0q1.1875 -1.0625 1.875 -2.125l0.9375 0.6875q0.1875 0.3125 -0.625 0.1875l-1.875 1.3125q2.5625 0.5625 2.5625 1.4375q0 0.5 -0.375 0.5q-0.1875 0 -0.3125 -0.1875q-0.9375 -1.25 -2.4375 -1.5625q0.5 3.0 2.6875 3.6875q0.25 0 0.3125 -0.25l0.75 -1.5q0.25 -0.1875 0.1875 0.125l-0.5 1.4375q-0.125 0.375 0 0.5625q0.375 0.5 -0.125 0.625q-1.0625 -0.0625 -1.9375 -0.6875q-2.25 -1.5625 -2.25 -5.3125l0 -0.5625l-8.3125 0l0 -0.375l8.125 0l0.375 -0.5l0.875 0.625z" fill-rule="nonzero"/><path fill="#000000" fill-opacity="0.0" d="m81.58268 24.08399c3.626686 2.0716152 7.2649384 4.1308365 11.0 6.0" fill-rule="evenodd"/><path stroke="#000000" stroke-width="1.0" stroke-linejoin="round" stroke-linecap="butt" d="m81.58268 24.08399c3.626686 2.0716152 7.2649384 4.1308365 11.0 6.0" fill-rule="evenodd"/><path fill="#000000" fill-opacity="0.0" d="m70.08399 23.08399c6.7431183 2.8081589 13.796013 5.435467 19.498688 9.999998" fill-rule="evenodd"/><path stroke="#000000" stroke-width="1.0" stroke-linejoin="round" stroke-linecap="butt" d="m70.08399 23.08399c6.7431183 2.8081589 13.796013 5.435467 19.498688 9.999998" fill-rule="evenodd"/><path fill="#000000" fill-opacity="0.0" d="m63.08399 25.08399c7.9195366 2.639845 15.343052 6.7006054 22.498692 10.999998" fill-rule="evenodd"/><path stroke="#000000" stroke-width="1.0" stroke-linejoin="round" stroke-linecap="butt" d="m63.08399 25.08399c7.9195366 2.639845 15.343052 6.7006054 22.498692 10.999998" fill-rule="evenodd"/><path fill="#000000" fill-opacity="0.0" d="m55.582676 27.08399c10.358746 2.2177887 19.919521 7.5440807 29.000004 12.999998" fill-rule="evenodd"/><path stroke="#000000" stroke-width="1.0" stroke-linejoin="round" stroke-linecap="butt" d="m55.582676 27.08399c10.358746 2.2177887 19.919521 7.5440807 29.000004 12.999998" fill-rule="evenodd"/><path fill="#000000" fill-opacity="0.0" d="m48.582676 31.08399c12.231827 0 23.143528 7.9579563 34.501316 12.498686" fill-rule="evenodd"/><path stroke="#000000" stroke-width="1.0" stroke-linejoin="round" stroke-linecap="butt" d="m48.582676 31.08399c12.231827 0 23.143528 7.9579563 34.501316 12.498686" fill-rule="evenodd"/><path fill="#000000" fill-opacity="0.0" d="m43.08399 34.582676c12.149712 4.049904 25.043835 6.2725754 36.49869 12.0" fill-rule="evenodd"/><path stroke="#000000" stroke-width="1.0" stroke-linejoin="round" stroke-linecap="butt" d="m43.08399 34.582676c12.149712 4.049904 25.043835 6.2725754 36.49869 12.0" fill-rule="evenodd"/><path fill="#000000" fill-opacity="0.0" d="m39.08399 37.08399c13.506863 3.367855 26.49731 8.615467 40.000004 12.0" fill-rule="evenodd"/><path stroke="#000000" stroke-width="1.0" stroke-linejoin="round" stroke-linecap="butt" d="m39.08399 37.08399c13.506863 3.367855 26.49731 8.615467 40.000004 12.0" fill-rule="evenodd"/><path fill="#000000" fill-opacity="0.0" d="m34.582676 41.582676c14.863728 3.7159348 30.797634 4.649475 44.501316 11.501312" fill-rule="evenodd"/><path stroke="#000000" stroke-width="1.0" stroke-linejoin="round" stroke-linecap="butt" d="m34.582676 41.582676c14.863728 3.7159348 30.797634 4.649475 44.501316 11.501312" fill-rule="evenodd"/><path fill="#000000" fill-opacity="0.0" d="m30.582678 44.08399c15.883863 3.9709663 31.1286 12.498688 47.501312 12.498688" fill-rule="evenodd"/><path stroke="#000000" stroke-width="1.0" stroke-linejoin="round" stroke-linecap="butt" d="m30.582678 44.08399c15.883863 3.9709663 31.1286 12.498688 47.501312 12.498688" fill-rule="evenodd"/><path fill="#000000" fill-opacity="0.0" d="m28.08399 50.08399c16.653738 0 33.0372 5.8121567 48.498688 12.0" fill-rule="evenodd"/><path stroke="#000000" stroke-width="1.0" stroke-linejoin="round" stroke-linecap="butt" d="m28.08399 50.08399c16.653738 0 33.0372 5.8121567 48.498688 12.0" fill-rule="evenodd"/><path fill="#000000" fill-opacity="0.0" d="m27.582678 53.08399c14.508619 4.8362083 29.165491 9.281639 44.0 13.000004" fill-rule="evenodd"/><path stroke="#000000" stroke-width="1.0" stroke-linejoin="round" stroke-linecap="butt" d="m27.582678 53.08399c14.508619 4.8362083 29.165491 9.281639 44.0 13.000004" fill-rule="evenodd"/><path fill="#000000" fill-opacity="0.0" d="m23.08399 58.582676c16.79091 4.197727 33.026375 10.615963 50.0 14.000004" fill-rule="evenodd"/><path stroke="#000000" stroke-width="1.0" stroke-linejoin="round" stroke-linecap="butt" d="m23.08399 58.582676c16.79091 4.197727 33.026375 10.615963 50.0 14.000004" fill-rule="evenodd"/><path fill="#000000" fill-opacity="0.0" d="m23.582678 64.08399c7.5574665 3.7787323 16.302824 4.454445 24.50131 6.4986877" fill-rule="evenodd"/><path stroke="#000000" stroke-width="1.0" stroke-linejoin="round" stroke-linecap="butt" d="m23.582678 64.08399c7.5574665 3.7787323 16.302824 4.454445 24.50131 6.4986877" fill-rule="evenodd"/><path fill="#000000" fill-opacity="0.0" d="m58.08399 73.08399c5.321331 1.062027 10.736553 1.6806793 16.000004 3.0" fill-rule="evenodd"/><path stroke="#000000" stroke-width="1.0" stroke-linejoin="round" stroke-linecap="butt" d="m58.08399 73.08399c5.321331 1.062027 10.736553 1.6806793 16.000004 3.0" fill-rule="evenodd"/><path fill="#000000" fill-opacity="0.0" d="m22.582678 70.58268c7.485258 0 14.739355 2.6813812 21.999998 4.5013123" fill-rule="evenodd"/><path stroke="#000000" stroke-width="1.0" stroke-linejoin="round" stroke-linecap="butt" d="m22.582678 70.58268c7.485258 0 14.739355 2.6813812 21.999998 4.5013123" fill-rule="evenodd"/><path fill="#000000" fill-opacity="0.0" d="m63.08399 79.08399c3.812992 0.6338272 7.7482033 0.56352234 11.498692 1.4986877" fill-rule="evenodd"/><path stroke="#000000" stroke-width="1.0" stroke-linejoin="round" stroke-linecap="butt" d="m63.08399 79.08399c3.812992 0.6338272 7.7482033 0.56352234 11.498692 1.4986877" fill-rule="evenodd"/><path fill="#000000" fill-opacity="0.0" d="m23.08399 75.58268c5.872059 0.7359314 11.58069 3.0 17.498686 3.0" fill-rule="evenodd"/><path stroke="#000000" stroke-width="1.0" stroke-linejoin="round" stroke-linecap="butt" d="m23.08399 75.58268c5.872059 0.7359314 11.58069 3.0 17.498686 3.0" fill-rule="evenodd"/><path fill="#000000" fill-opacity="0.0" d="m64.58268 83.58268c3.3890305 0.5663223 6.667076 1.6658936 10.0 2.5013123" fill-rule="evenodd"/><path stroke="#000000" stroke-width="1.0" stroke-linejoin="round" stroke-linecap="butt" d="m64.58268 83.58268c3.3890305 0.5663223 6.667076 1.6658936 10.0 2.5013123" fill-rule="evenodd"/><path fill="#000000" fill-opacity="0.0" d="m22.582678 81.08399c6.9325676 0 13.702547 2.1432114 20.50131 3.4986877" fill-rule="evenodd"/><path stroke="#000000" stroke-width="1.0" stroke-linejoin="round" stroke-linecap="butt" d="m22.582678 81.08399c6.9325676 0 13.702547 2.1432114 20.50131 3.4986877" fill-rule="evenodd"/><path fill="#000000" fill-opacity="0.0" d="m52.582676 85.58268c7.9807854 1.5995026 16.104755 2.522316 24.000004 4.5013123" fill-rule="evenodd"/><path stroke="#000000" stroke-width="1.0" stroke-linejoin="round" stroke-linecap="butt" d="m52.582676 85.58268c7.9807854 1.5995026 16.104755 2.522316 24.000004 4.5013123" fill-rule="evenodd"/><path fill="#000000" fill-opacity="0.0" d="m26.08399 85.58268c17.279463 2.4758987 34.04274 9.501312 51.498688 9.501312" fill-rule="evenodd"/><path stroke="#000000" stroke-width="1.0" stroke-linejoin="round" stroke-linecap="butt" d="m26.08399 85.58268c17.279463 2.4758987 34.04274 9.501312 51.498688 9.501312" fill-rule="evenodd"/><path fill="#000000" fill-opacity="0.0" d="m26.08399 92.08399c18.62457 3.7170868 39.013145 2.0052567 56.0 10.498688" fill-rule="evenodd"/><path stroke="#000000" stroke-width="1.0" stroke-linejoin="round" stroke-linecap="butt" d="m26.08399 92.08399c18.62457 3.7170868 39.013145 2.0052567 56.0 10.498688" fill-rule="evenodd"/><path fill="#000000" fill-opacity="0.0" d="m28.08399 98.08399c18.369661 0 36.942963 4.1807632 54.0 11.0" fill-rule="evenodd"/><path stroke="#000000" stroke-width="1.0" stroke-linejoin="round" stroke-linecap="butt" d="m28.08399 98.08399c18.369661 0 36.942963 4.1807632 54.0 11.0" fill-rule="evenodd"/><path fill="#000000" fill-opacity="0.0" d="m30.08399 103.08399c19.914705 2.2075806 39.558556 6.651085 59.0 11.498688" fill-rule="evenodd"/><path stroke="#000000" stroke-width="1.0" stroke-linejoin="round" stroke-linecap="butt" d="m30.08399 103.08399c19.914705 2.2075806 39.558556 6.651085 59.0 11.498688" fill-rule="evenodd"/><path fill="#000000" fill-opacity="0.0" d="m36.08399 108.08399c18.246475 7.816002 38.739674 8.696243 58.000004 13.498688" fill-rule="evenodd"/><path stroke="#000000" stroke-width="1.0" stroke-linejoin="round" stroke-linecap="butt" d="m36.08399 108.08399c18.246475 7.816002 38.739674 8.696243 58.000004 13.498688" fill-rule="evenodd"/><path fill="#000000" fill-opacity="0.0" d="m43.582676 116.08399c16.316277 3.252983 32.362614 9.498688 49.000004 9.498688" fill-rule="evenodd"/><path stroke="#000000" stroke-width="1.0" stroke-linejoin="round" stroke-linecap="butt" d="m43.582676 116.08399c16.316277 3.252983 32.362614 9.498688 49.000004 9.498688" fill-rule="evenodd"/><path fill="#000000" fill-opacity="0.0" d="m54.582676 123.08399c9.453823 2.3613815 19.04652 4.1411896 28.501316 6.49868" fill-rule="evenodd"/><path stroke="#000000" stroke-width="1.0" stroke-linejoin="round" stroke-linecap="butt" d="m54.582676 123.08399c9.453823 2.3613815 19.04652 4.1411896 28.501316 6.49868" fill-rule="evenodd"/><path fill="#000000" d="m99.16273 56.08399l0 0c0 -2.6266136 2.2421036 -4.755905 5.0078735 -4.755905l0 0c1.3281708 0 2.601944 0.5010681 3.5411072 1.3929749c0.9391556 0.8919029 1.4667664 2.1015854 1.4667664 3.3629303l0 0c0 2.6266136 -2.242096 4.755905 -5.0078735 4.755905l0 0c-2.76577 0 -5.0078735 -2.1292915 -5.0078735 -4.755905z" fill-rule="evenodd"/><path stroke="#000000" stroke-width="1.0" stroke-linejoin="round" stroke-linecap="butt" d="m99.16273 56.08399l0 0c0 -2.6266136 2.2421036 -4.755905 5.0078735 -4.755905l0 0c1.3281708 0 2.601944 0.5010681 3.5411072 1.3929749c0.9391556 0.8919029 1.4667664 2.1015854 1.4667664 3.3629303l0 0c0 2.6266136 -2.242096 4.755905 -5.0078735 4.755905l0 0c-2.76577 0 -5.0078735 -2.1292915 -5.0078735 -4.755905z" fill-rule="evenodd"/><path fill="#000000" fill-opacity="0.0" d="m84.1706 54.698162l40.0 0l0 38.771656l-40.0 0z" fill-rule="evenodd"/><path fill="#000000" d="m96.6081 74.05817q1.9375 -2.0625 3.0625 -5.5l0.9375 0.4375q0.5 0.375 -0.4375 0.4375q-0.1875 0.4375 -0.4375 0.875l2.3125 0l0.4375 -0.4375l0.9375 0.4375q0.5625 0.4375 -0.5625 0.375l-1.25 1.5625l1.375 0l0.375 -0.5l0.875 0.625q0.375 0.3125 -0.25 0.4375l0 4.0q-0.8125 0.75 -0.8125 0.0625l0 -0.4375l-4.125 0l0 0.375q-0.8125 0.75 -0.8125 0.0625l0 -4.0q-0.625 0.8125 -1.375 1.3125q-0.25 0.1875 -0.25 -0.125zm13.9375 4.25q-1.625 -1.625 -2.5 -3.875l0 5.625q-0.8125 0.75 -0.8125 0.0625l0 -5.375q-1.3125 1.8125 -2.6875 2.8125q-0.375 0.125 -0.1875 -0.1875q1.875 -1.9375 2.75 -3.8125l-2.5 0l0 -0.375l2.625 0l0 -2.4375q-1.5 0.375 -2.8125 0.4375q-0.25 -0.125 0 -0.25q2.4375 -0.4375 5.125 -1.6875l0.9375 0.5q0.3125 0.3125 -0.6875 0.25q-0.6875 0.25 -1.75 0.5625l0 2.625l1.6875 0l0.8125 -0.8125l1.0 0.75q0.375 0.3125 0 0.4375l-3.375 0q0.625 2.3125 3.375 4.125q-0.5 0.0625 -1.0 0.625zm-7.1875 -0.5625q-0.1875 -0.25 0.125 -0.25q1.6875 0.75 1.6875 1.9375q0 0.5625 -0.3125 0.5625q-0.375 0 -0.5625 -0.625q-0.25 -1.0625 -0.9375 -1.625zm-1.4375 1.5q0 -0.9375 -0.4375 -1.5q0 -0.3125 0.25 -0.125q0.9375 0.8125 1.0 1.8125q0.0625 0.875 -0.4375 0.875q-0.25 0 -0.3125 -0.1875q-0.0625 -0.3125 -0.0625 -0.875zm-1.875 -1.5625q0.5 0.8125 0.4375 1.75q-0.0625 0.9375 -0.5625 0.9375q-0.3125 0 -0.3125 -0.375q0 -0.25 0.1875 -1.0q0.0625 -0.6875 -0.0625 -1.3125q0.125 -0.25 0.3125 0zm-2.75 1.5625q0.75 -0.6875 0.8125 -1.625q0.125 -0.25 0.25 0q0.1875 1.25 -0.3125 2.125q-0.25 0.4375 -0.75 0.4375q-0.375 0 -0.375 -0.375q0 -0.1875 0.375 -0.5625zm5.875 -6.625l-1.75 0l0 1.5l1.75 0l0 -1.5zm-3.625 -1.9375q-0.3125 0.625 -0.75 1.3125l0.375 0.25l2.0625 0l0.875 -1.5625l-2.5625 0zm-0.5 3.4375l1.5625 0l0 -1.5l-1.5625 0l0 1.5zm2.375 1.9375l1.75 0l0 -1.5625l-1.75 0l0 1.5625zm-2.375 0l1.5625 0l0 -1.5625l-1.5625 0l0 1.5625zm2.5 -8.5l0 -1.625l1.0625 0.1875q0.5 0.3125 -0.25 0.4375l0 1.0l3.4375 0l0 -1.625l1.0625 0.1875q0.5 0.3125 -0.25 0.4375l0 1.0l2.6875 0l0.8125 -0.8125l1.0 0.75q0.375 0.3125 0 0.4375l-4.5 0l0 1.25q-0.8125 0.75 -0.8125 0.0625l0 -1.3125l-3.4375 0l0 1.25q-0.8125 0.75 -0.8125 0.0625l0 -1.3125l-4.375 0l0 -0.375l4.375 0z" fill-rule="nonzero"/></g></svg>