<svg version="1.1" viewBox="0.0 0.0 207.8740157480315 151.1811023622047" fill="none" stroke="none" stroke-linecap="square" stroke-miterlimit="10" xmlns:xlink="http://www.w3.org/1999/xlink" xmlns="http://www.w3.org/2000/svg"><clipPath id="p.0"><path d="m0 0l207.87401 0l0 151.1811l-207.87401 0l0 -151.1811z" clip-rule="nonzero"/></clipPath><g clip-path="url(#p.0)"><path fill="#000000" fill-opacity="0.0" d="m0 0l207.87401 0l0 151.1811l-207.87401 0z" fill-rule="evenodd"/><path fill="#000000" fill-opacity="0.0" d="m18.897638 75.58793l0 0c0 -31.310635 25.37523 -56.692917 56.67717 -56.692917l0 0c15.031715 0 29.447777 5.972986 40.076805 16.60497c10.629028 10.631981 16.600357 25.052048 16.600357 40.087944l0 0c0 31.31063 -25.375229 56.69291 -56.677162 56.69291l0 0c-31.301937 0 -56.67717 -25.382278 -56.67717 -56.69291z" fill-rule="evenodd"/><path stroke="#666666" stroke-width="2.0" stroke-linejoin="round" stroke-linecap="butt" d="m18.897638 75.58793l0 0c0 -31.310635 25.37523 -56.692917 56.67717 -56.692917l0 0c15.031715 0 29.447777 5.972986 40.076805 16.60497c10.629028 10.631981 16.600357 25.052048 16.600357 40.087944l0 0c0 31.31063 -25.375229 56.69291 -56.677162 56.69291l0 0c-31.301937 0 -56.67717 -25.382278 -56.67717 -56.69291z" fill-rule="evenodd"/><path fill="#000000" fill-opacity="0.0" d="m40.212597 41.065617l35.370083 0l0 38.771656l-35.370083 0z" fill-rule="evenodd"/><path fill="#000000" d="m60.837597 64.42562q0 0.5625 -0.375 0.5625q-0.1875 0 -0.3125 -0.25q-0.5 -1.3125038 -1.5625 -1.9375038q-0.1875 -0.125 0.0625 -0.1875q1.0 0.125 1.6875 0.8125q0.5 0.5 0.5 1.0000038zm2.8125 -2.1250038q-0.125 3.1875038 -1.3125 4.125004q-0.4375 0.3125 -1.0 0.375q-0.875 0.1875 -0.875 -0.3125q0.0625 -0.3125 -0.1875 -0.4375l-0.9375 -0.4375q-0.1875 -0.1875 0.0625 -0.1875l1.3125 0.3125q0.875 0.0625 1.25 -0.1875q0.6875 -0.5 0.9375 -3.4375038l-9.1875 0l0 0.9375q-0.8125 0.75 -0.8125 0.0625l0 -9.3125l1.0 0.5625l1.375 0l0.25 -1.9375l1.1875 0.1875q0.5625 0.1875 -0.5 0.5l-0.6875 1.25l4.375 0l0.375 -0.5l0.875 0.625q0.375 0.3125 -0.25 0.4375l0 3.9375q-0.8125 0.75 -0.8125 0.0625l0 -0.375l-6.375 0l0 1.3125l8.5 0l0.8125 -0.8125l1.0000038 0.75q0.375 0.3125 0 0.4375l-10.312504 0l0 1.5l8.9375 0l0.375 -0.5625l1.0625038 0.75q0.375 0.3125 -0.4375038 0.375zm-7.1875 0.8125q-0.125 -0.25 0.1875 -0.125q1.5625 0.8125 1.5625 2.1250038q0 0.75 -0.5 0.75q-0.25 0 -0.3125 -0.3125q-0.125 -0.8125 -0.25 -1.25q-0.125 -0.6250038 -0.6875 -1.1875038zm-2.0 0.1875q0.9375 0.8750038 0.9375 2.1250038q0 0.875 -0.625 0.875q-0.4375 0 -0.4375 -0.625q0 -0.25 0.125 -0.6875q0.1875 -0.9375 -0.1875 -1.5625038q-0.125 -0.3125 0.1875 -0.125zm-2.6875 0.0625q0.125 -0.25 0.25 0q0.125 0.7500038 0 1.6250038q-0.375 1.8125 -1.5 1.8125q-0.4375 0 -0.4375 -0.4375q0 -0.25 0.375 -0.5625q0.75 -0.625 0.9375 -1.125q0.1875 -0.375 0.375 -1.3125038zm8.3125 -5.1875l0 -1.5625l-6.375 0l0 1.5625l6.375 0zm0 -1.9375l0 -1.5l-6.375 0l0 1.5l6.375 0z" fill-rule="nonzero"/><path fill="#000000" fill-opacity="0.0" d="m75.58268 75.98688l0 0c0 -31.31063 25.347023 -56.692917 56.614174 -56.692917l0 0c15.015015 0 29.41504 5.972986 40.032257 16.60497c10.617218 10.631985 16.58191 25.052048 16.58191 40.087944l0 0c0 31.31063 -25.34703 56.692917 -56.614166 56.692917l0 0c-31.26715 0 -56.614174 -25.382286 -56.614174 -56.692917z" fill-rule="evenodd"/><path stroke="#000000" stroke-width="1.0" stroke-linejoin="round" stroke-linecap="butt" d="m75.58268 75.98688l0 0c0 -31.31063 25.347023 -56.692917 56.614174 -56.692917l0 0c15.015015 0 29.41504 5.972986 40.032257 16.60497c10.617218 10.631985 16.58191 25.052048 16.58191 40.087944l0 0c0 31.31063 -25.34703 56.692917 -56.614166 56.692917l0 0c-31.26715 0 -56.614174 -25.382286 -56.614174 -56.692917z" fill-rule="evenodd"/><path fill="#000000" fill-opacity="0.0" d="m145.78477 46.501312l28.094498 0l0 58.173225l-28.094498 0z" fill-rule="evenodd"/><path fill="#000000" d="m155.22227 63.236313q1.75 -0.8125 3.5625 -2.375q2.25 -1.875 3.375 -3.5625l0.8125 0.375q0.8125 0.375 0.0625 0.5q2.25 2.375 6.875 4.0q-0.4375 0.25 -0.8125 1.0q-3.8125 -1.875 -6.4375 -4.875q-2.1875 2.3125 -4.75 3.9375l0.5 0.4375l8.25 0l0.375 -0.375l0.8125 0.5625q0.5625 0.375 -0.25 0.375l0 3.1875q-0.8125 0.75 -0.8125 0.0625l0 -0.5l-8.5 0l0 0.375q-0.8125 0.75 -0.8125 0.0625l0 -4.0q-1.25 0.8125 -2.25 1.0625q-0.375 0 0 -0.25zm4.75 1.4375q-0.1875 -0.6875 -0.6875 -1.1875q-0.125 -0.1875 0.125 -0.125q0.9375 0.375 1.375 1.0625q0.1875 0.6875 -0.25 0.8125q-0.375 0.0625 -0.5625 -0.5625zm-0.3125 7.375q-0.8125 0.75 -0.8125 0.0625l0 -5.375l0.9375 0.4375l5.5 0l0.4375 -0.4375l0.625 0.375q0.625 0.375 -0.125 0.5625l0 4.375q-0.8125 0.75 -0.8125 0.0625l0 -0.5625l-5.75 0l0 0.5zm0 -2.75l5.75 0l0 -1.75l-5.75 0l0 1.75zm5.75 0.375l-5.75 0l0 1.5l5.75 0l0 -1.5zm1.375 -6.625l-3.8125 0l0 2.5625l1.25 0l0.5625 -2.25l0.875 0.375q0.6875 0.3125 -0.125 0.375l-0.9375 1.5l2.1875 0l0 -2.5625zm-4.625 0l-3.875 0l0 2.5625l3.875 0l0 -2.5625zm-2.3125 -1.8125l3.9375 0l0.75 -0.75l0.875 0.6875q0.375 0.3125 0 0.4375l-5.5625 0l0 -0.375z" fill-rule="nonzero"/><path fill="#000000" d="m168.09727 88.31132q-0.25 0 -0.4375 -0.1875q-0.8125 -0.75 -2.25 -1.125q0.75 2.4375 2.6875 2.8125q0.3125 0.0625 0.5 -0.125l0.75 -1.75q0.25 -0.4375 0.1875 0.0625l-0.3125 1.6875q-0.0625 0.375 0.25 0.625q0.3125 0.375 -0.1875 0.5q-1.3125 0.125 -2.5625 -0.625q-2.375 -1.625 -2.375 -5.625l0 -0.375l-1.625 0l0 6.875q-0.8125 0.75 -0.8125 0.0625l0 -6.9375l-2.5 0l0 0.8125q0 4.125 -3.4375 6.25q-0.375 0.125 -0.1875 -0.25q2.8125 -2.1875 2.8125 -5.625l0 -1.1875l-3.125 0l0 -0.375l3.125 0l0 -2.5q-2.125 0.8125 -3.0625 1.0q-0.4375 0 -0.125 -0.25q2.625 -0.875 4.6875 -2.4375l0.9375 0.625q0.5 0.375 -0.4375 0.25l-1.1875 0.5l0 2.8125l2.5 0l0 -4.375l1.0625 0.1875q0.5 0.3125 -0.25 0.4375l0 3.75l1.4375 0l0.375 -0.5l0.875 0.625q0.375 0.3125 -0.25 0.4375l0 0.375q0 0.9375 0.1875 1.9375q0.8125 -1.125 1.1875 -2.0l0.75 0.4375q0.5 0.4375 -0.25 0.3125l-1.5 1.375q2.8125 0.125 2.8125 1.125q0 0.375 -0.25 0.375zm-1.9375 -9.9375q0.375 0.3125 -0.25 0.4375l0 0.625q0 0.5625 0.0625 0.8125l0.25 0q1.1875 -1.0625 1.875 -2.125l0.9375 0.6875q0.1875 0.3125 -0.625 0.1875l-1.875 1.3125q2.5625 0.5625 2.5625 1.4375q0 0.5 -0.375 0.5q-0.1875 0 -0.3125 -0.1875q-0.9375 -1.25 -2.4375 -1.5625q0.5 3.0 2.6875 3.6875q0.25 0 0.3125 -0.25l0.75 -1.5q0.25 -0.1875 0.1875 0.125l-0.5 1.4375q-0.125 0.375 0 0.5625q0.375 0.5 -0.125 0.625q-1.0625 -0.0625 -1.9375 -0.6875q-2.25 -1.5625 -2.25 -5.3125l0 -0.5625l-8.3125 0l0 -0.375l8.125 0l0.375 -0.5l0.875 0.625z" fill-rule="nonzero"/><path fill="#000000" d="m58.8084 102.28609l0 0c0 -2.6266098 2.2420998 -4.755905 5.0078735 -4.755905l0 0c1.3281746 0 2.6019402 0.5010681 3.5411034 1.3929749c0.9391556 0.89190674 1.466774 2.1015854 1.466774 3.3629303l0 0c0 2.6266174 -2.2421036 4.755905 -5.0078773 4.755905l0 0c-2.7657738 0 -5.0078735 -2.1292877 -5.0078735 -4.755905z" fill-rule="evenodd"/><path stroke="#000000" stroke-width="1.0" stroke-linejoin="round" stroke-linecap="butt" d="m58.8084 102.28609l0 0c0 -2.6266098 2.2420998 -4.755905 5.0078735 -4.755905l0 0c1.3281746 0 2.6019402 0.5010681 3.5411034 1.3929749c0.9391556 0.89190674 1.466774 2.1015854 1.466774 3.3629303l0 0c0 2.6266174 -2.2421036 4.755905 -5.0078773 4.755905l0 0c-2.7657738 0 -5.0078735 -2.1292877 -5.0078735 -4.755905z" fill-rule="evenodd"/><path fill="#000000" fill-opacity="0.0" d="m51.454067 97.53018l40.000004 0l0 38.771652l-40.000004 0z" fill-rule="evenodd"/><path fill="#000000" d="m63.891567 116.89018q1.9375038 -2.0625 3.0625038 -5.5l0.9375 0.4375q0.5 0.375 -0.4375 0.4375q-0.1875 0.4375 -0.4375 0.875l2.3125 0l0.4375 -0.4375l0.9375 0.4375q0.5625 0.4375 -0.5625 0.375l-1.25 1.5625l1.375 0l0.375 -0.5l0.875 0.625q0.375 0.3125 -0.25 0.4375l0 4.0q-0.8125 0.75 -0.8125 0.0625l0 -0.4375l-4.125 0l0 0.375q-0.8125 0.75 -0.8125 0.0625l0 -4.0q-0.625 0.8125 -1.375 1.3125q-0.2500038 0.1875 -0.2500038 -0.125zm13.937504 4.25q-1.625 -1.625 -2.5 -3.875l0 5.625q-0.8125 0.75 -0.8125 0.0625l0 -5.375q-1.3125 1.8125 -2.6875 2.8125q-0.375 0.125 -0.1875 -0.1875q1.875 -1.9375 2.75 -3.8125l-2.5 0l0 -0.375l2.625 0l0 -2.4375q-1.5 0.375 -2.8125 0.4375q-0.25 -0.125 0 -0.25q2.4375 -0.4375 5.125 -1.6875l0.9375 0.5q0.3125 0.3125 -0.6875 0.25q-0.6875 0.25 -1.75 0.5625l0 2.625l1.6875 0l0.8125 -0.8125l1.0 0.75q0.375 0.3125 0 0.4375l-3.375 0q0.625 2.3125 3.375 4.125q-0.5 0.0625 -1.0 0.625zm-7.1875 -0.5625q-0.1875 -0.25 0.125 -0.25q1.6875 0.75 1.6875 1.9375q0 0.5625 -0.3125 0.5625q-0.375 0 -0.5625 -0.625q-0.25 -1.0625 -0.9375 -1.625zm-1.4375 1.5q0 -0.9375 -0.4375 -1.5q0 -0.3125 0.25 -0.125q0.9375 0.8125 1.0 1.8125q0.0625 0.875 -0.4375 0.875q-0.25 0 -0.3125 -0.1875q-0.0625 -0.3125 -0.0625 -0.875zm-1.875 -1.5625q0.5 0.8125 0.4375 1.75q-0.0625 0.9375 -0.5625 0.9375q-0.3125 0 -0.3125 -0.375q0 -0.25 0.1875 -1.0q0.0625 -0.6875 -0.0625 -1.3125q0.125 -0.25 0.3125 0zm-2.75 1.5625q0.75 -0.6875 0.8125 -1.625q0.125 -0.25 0.25 0q0.1875 1.25 -0.3125 2.125q-0.25 0.4375 -0.75 0.4375q-0.375 0 -0.375 -0.375q0 -0.1875 0.375 -0.5625zm5.875 -6.625l-1.75 0l0 1.5l1.75 0l0 -1.5zm-3.625 -1.9375q-0.3125 0.625 -0.75 1.3125l0.375 0.25l2.0625 0l0.875 -1.5625l-2.5625 0zm-0.5 3.4375l1.5625 0l0 -1.5l-1.5625 0l0 1.5zm2.375 1.9375l1.75 0l0 -1.5625l-1.75 0l0 1.5625zm-2.375 0l1.5625 0l0 -1.5625l-1.5625 0l0 1.5625zm2.5 -8.5l0 -1.625l1.0625 0.1875q0.5 0.3125 -0.25 0.4375l0 1.0l3.4375 0l0 -1.625l1.0625 0.1875q0.5 0.3125 -0.25 0.4375l0 1.0l2.6875 0l0.8125 -0.8125l1.0 0.75q0.375 0.3125 0 0.4375l-4.5 0l0 1.25q-0.8125 0.75 -0.8125 0.0625l0 -1.3125l-3.4375 0l0 1.25q-0.8125 0.75 -0.8125 0.0625l0 -1.3125l-4.375 0l0 -0.375l4.375 0z" fill-rule="nonzero"/><path fill="#000000" fill-opacity="0.0" d="m92.16458 35.898933l16.598427 -6.4566936" fill-rule="evenodd"/><path stroke="#000000" stroke-width="1.0" stroke-linejoin="round" stroke-linecap="butt" d="m92.16458 35.898933l16.598427 -6.4566936" fill-rule="evenodd"/><path fill="#000000" fill-opacity="0.0" d="m92.16458 35.898933l0 0" fill-rule="evenodd"/><path stroke="#000000" stroke-width="1.0" stroke-linejoin="round" stroke-linecap="butt" d="m92.16458 35.898933l0 0" fill-rule="evenodd"/><path fill="#000000" fill-opacity="0.0" d="m112.7769 32.7769l-24.661415 8.661419" fill-rule="evenodd"/><path stroke="#000000" stroke-width="1.0" stroke-linejoin="round" stroke-linecap="butt" d="m112.7769 32.7769l-24.661415 8.661419" fill-rule="evenodd"/><path fill="#000000" fill-opacity="0.0" d="m117.44357 37.44357l-33.322838 10.677166" fill-rule="evenodd"/><path stroke="#000000" stroke-width="1.0" stroke-linejoin="round" stroke-linecap="butt" d="m117.44357 37.44357l-33.322838 10.677166" fill-rule="evenodd"/><path fill="#000000" fill-opacity="0.0" d="m122.11024 42.110237l-42.67717 12.661415" fill-rule="evenodd"/><path stroke="#000000" stroke-width="1.0" stroke-linejoin="round" stroke-linecap="butt" d="m122.11024 42.110237l-42.67717 12.661415" fill-rule="evenodd"/><path fill="#000000" fill-opacity="0.0" d="m126.11024 47.44357l-46.67717 13.322834" fill-rule="evenodd"/><path stroke="#000000" stroke-width="1.0" stroke-linejoin="round" stroke-linecap="butt" d="m126.11024 47.44357l-46.67717 13.322834" fill-rule="evenodd"/><path fill="#000000" fill-opacity="0.0" d="m126.7769 53.44357l-50.677162 14.015751" fill-rule="evenodd"/><path stroke="#000000" stroke-width="1.0" stroke-linejoin="round" stroke-linecap="butt" d="m126.7769 53.44357l-50.677162 14.015751" fill-rule="evenodd"/><path fill="#000000" fill-opacity="0.0" d="m129.44357 59.44357l-53.322838 14.677166" fill-rule="evenodd"/><path stroke="#000000" stroke-width="1.0" stroke-linejoin="round" stroke-linecap="butt" d="m129.44357 59.44357l-53.322838 14.677166" fill-rule="evenodd"/><path fill="#000000" fill-opacity="0.0" d="m132.11023 64.7769l-55.338577 16.0" fill-rule="evenodd"/><path stroke="#000000" stroke-width="1.0" stroke-linejoin="round" stroke-linecap="butt" d="m132.11023 64.7769l-55.338577 16.0" fill-rule="evenodd"/><path fill="#000000" fill-opacity="0.0" d="m132.7769 70.7769l-55.338577 15.338585" fill-rule="evenodd"/><path stroke="#000000" stroke-width="1.0" stroke-linejoin="round" stroke-linecap="butt" d="m132.7769 70.7769l-55.338577 15.338585" fill-rule="evenodd"/><path fill="#000000" fill-opacity="0.0" d="m132.7769 78.11024l-54.015747 15.338585" fill-rule="evenodd"/><path stroke="#000000" stroke-width="1.0" stroke-linejoin="round" stroke-linecap="butt" d="m132.7769 78.11024l-54.015747 15.338585" fill-rule="evenodd"/><path fill="#000000" fill-opacity="0.0" d="m132.7769 84.7769l-51.338577 14.015747" fill-rule="evenodd"/><path stroke="#000000" stroke-width="1.0" stroke-linejoin="round" stroke-linecap="butt" d="m132.7769 84.7769l-51.338577 14.015747" fill-rule="evenodd"/><path fill="#000000" fill-opacity="0.0" d="m129.44357 93.44357l-44.661423 12.0" fill-rule="evenodd"/><path stroke="#000000" stroke-width="1.0" stroke-linejoin="round" stroke-linecap="butt" d="m129.44357 93.44357l-44.661423 12.0" fill-rule="evenodd"/><path fill="#000000" fill-opacity="0.0" d="m126.11024 101.44357l-36.0 10.015747" fill-rule="evenodd"/><path stroke="#000000" stroke-width="1.0" stroke-linejoin="round" stroke-linecap="butt" d="m126.11024 101.44357l-36.0 10.015747" fill-rule="evenodd"/><path fill="#000000" fill-opacity="0.0" d="m123.44357 108.7769l-30.67717 8.661423" fill-rule="evenodd"/><path stroke="#000000" stroke-width="1.0" stroke-linejoin="round" stroke-linecap="butt" d="m123.44357 108.7769l-30.67717 8.661423" fill-rule="evenodd"/><path fill="#000000" fill-opacity="0.0" d="m113.44357 117.44357l-14.67717 4.0" fill-rule="evenodd"/><path stroke="#000000" stroke-width="1.0" stroke-linejoin="round" stroke-linecap="butt" d="m113.44357 117.44357l-14.67717 4.0" fill-rule="evenodd"/></g></svg>