<svg version="1.1" viewBox="0.0 0.0 207.8740157480315 151.1811023622047" fill="none" stroke="none" stroke-linecap="square" stroke-miterlimit="10" xmlns:xlink="http://www.w3.org/1999/xlink" xmlns="http://www.w3.org/2000/svg"><clipPath id="p.0"><path d="m0 0l207.87401 0l0 151.1811l-207.87401 0l0 -151.1811z" clip-rule="nonzero"/></clipPath><g clip-path="url(#p.0)"><path fill="#000000" fill-opacity="0.0" d="m0 0l207.87401 0l0 151.1811l-207.87401 0z" fill-rule="evenodd"/><path fill="#000000" fill-opacity="0.0" d="m18.897638 75.58793l0 0c0 -31.310635 25.37523 -56.692917 56.67717 -56.692917l0 0c15.031715 0 29.447777 5.972986 40.076805 16.60497c10.629028 10.631981 16.600357 25.052048 16.600357 40.087944l0 0c0 31.31063 -25.375229 56.69291 -56.677162 56.69291l0 0c-31.301937 0 -56.67717 -25.382278 -56.67717 -56.69291z" fill-rule="evenodd"/><path stroke="#000000" stroke-width="1.0" stroke-linejoin="round" stroke-linecap="butt" d="m18.897638 75.58793l0 0c0 -31.310635 25.37523 -56.692917 56.67717 -56.692917l0 0c15.031715 0 29.447777 5.972986 40.076805 16.60497c10.629028 10.631981 16.600357 25.052048 16.600357 40.087944l0 0c0 31.31063 -25.375229 56.69291 -56.677162 56.69291l0 0c-31.301937 0 -56.67717 -25.382278 -56.67717 -56.69291z" fill-rule="evenodd"/><path fill="#000000" fill-opacity="0.0" d="m33.454067 58.75853l35.370083 0l0 38.771652l-35.370083 0z" fill-rule="evenodd"/><path fill="#000000" d="m54.079067 82.11853q0 0.5625 -0.375 0.5625q-0.1875 0 -0.3125 -0.25q-0.5 -1.3125 -1.5625 -1.9375q-0.1875 -0.125 0.0625 -0.1875q1.0 0.125 1.6875 0.8125q0.5 0.5 0.5 1.0zm2.8125 -2.125q-0.125 3.1875 -1.3125 4.125q-0.4375 0.3125 -1.0 0.375q-0.875 0.1875 -0.875 -0.3125q0.0625 -0.3125 -0.1875 -0.4375l-0.9375 -0.4375q-0.1875 -0.1875 0.0625 -0.1875l1.3125 0.3125q0.875 0.0625 1.25 -0.1875q0.6875 -0.5 0.9375 -3.4375l-9.1875 0l0 0.9375q-0.8125 0.75 -0.8125 0.0625l0 -9.3125l1.0 0.5625l1.375 0l0.25 -1.9375l1.1875 0.1875q0.5625 0.1875 -0.5 0.5l-0.6875 1.25l4.375 0l0.375 -0.5l0.875 0.625q0.375 0.3125 -0.25 0.4375l0 3.9375q-0.8125 0.75 -0.8125 0.0625l0 -0.375l-6.375 0l0 1.3125l8.5 0l0.8125 -0.8125l1.0 0.75q0.375 0.3125 0 0.4375l-10.3125 0l0 1.5l8.9375 0l0.375 -0.5625l1.0625 0.75q0.375 0.3125 -0.4375 0.375zm-7.1875 0.8125q-0.125 -0.25 0.1875 -0.125q1.5625 0.8125 1.5625 2.125q0 0.75 -0.5 0.75q-0.25 0 -0.3125 -0.3125q-0.125 -0.8125 -0.25 -1.25q-0.125 -0.625 -0.6875 -1.1875zm-2.0 0.1875q0.9375 0.875 0.9375 2.125q0 0.875 -0.625 0.875q-0.4375 0 -0.4375 -0.625q0 -0.25 0.125 -0.6875q0.1875 -0.9375 -0.1875 -1.5625q-0.125 -0.3125 0.1875 -0.125zm-2.6875 0.0625q0.125 -0.25 0.25 0q0.125 0.75 0 1.625q-0.375 1.8125 -1.5 1.8125q-0.4375 0 -0.4375 -0.4375q0 -0.25 0.375 -0.5625q0.75 -0.625 0.9375 -1.125q0.1875 -0.375 0.375 -1.3125zm8.3125 -5.1875l0 -1.5625l-6.375 0l0 1.5625l6.375 0zm0 -1.9375l0 -1.5l-6.375 0l0 1.5l6.375 0z" fill-rule="nonzero"/><path fill="#000000" fill-opacity="0.0" d="m75.461945 75.98688l0 0c0 -31.31063 25.375229 -56.692917 56.67717 -56.692917l0 0c15.031708 0 29.44777 5.972986 40.076797 16.60497c10.629028 10.631985 16.600357 25.052048 16.600357 40.087944l0 0c0 31.31063 -25.375229 56.692917 -56.677155 56.692917l0 0c-31.30194 0 -56.67717 -25.382286 -56.67717 -56.692917z" fill-rule="evenodd"/><path stroke="#000000" stroke-width="1.0" stroke-linejoin="round" stroke-linecap="butt" d="m75.461945 75.98688l0 0c0 -31.31063 25.375229 -56.692917 56.67717 -56.692917l0 0c15.031708 0 29.44777 5.972986 40.076797 16.60497c10.629028 10.631985 16.600357 25.052048 16.600357 40.087944l0 0c0 31.31063 -25.375229 56.692917 -56.677155 56.692917l0 0c-31.30194 0 -56.67717 -25.382286 -56.67717 -56.692917z" fill-rule="evenodd"/><path fill="#000000" fill-opacity="0.0" d="m145.78477 46.501312l28.094498 0l0 58.173225l-28.094498 0z" fill-rule="evenodd"/><path fill="#000000" d="m155.22227 63.236313q1.75 -0.8125 3.5625 -2.375q2.25 -1.875 3.375 -3.5625l0.8125 0.375q0.8125 0.375 0.0625 0.5q2.25 2.375 6.875 4.0q-0.4375 0.25 -0.8125 1.0q-3.8125 -1.875 -6.4375 -4.875q-2.1875 2.3125 -4.75 3.9375l0.5 0.4375l8.25 0l0.375 -0.375l0.8125 0.5625q0.5625 0.375 -0.25 0.375l0 3.1875q-0.8125 0.75 -0.8125 0.0625l0 -0.5l-8.5 0l0 0.375q-0.8125 0.75 -0.8125 0.0625l0 -4.0q-1.25 0.8125 -2.25 1.0625q-0.375 0 0 -0.25zm4.75 1.4375q-0.1875 -0.6875 -0.6875 -1.1875q-0.125 -0.1875 0.125 -0.125q0.9375 0.375 1.375 1.0625q0.1875 0.6875 -0.25 0.8125q-0.375 0.0625 -0.5625 -0.5625zm-0.3125 7.375q-0.8125 0.75 -0.8125 0.0625l0 -5.375l0.9375 0.4375l5.5 0l0.4375 -0.4375l0.625 0.375q0.625 0.375 -0.125 0.5625l0 4.375q-0.8125 0.75 -0.8125 0.0625l0 -0.5625l-5.75 0l0 0.5zm0 -2.75l5.75 0l0 -1.75l-5.75 0l0 1.75zm5.75 0.375l-5.75 0l0 1.5l5.75 0l0 -1.5zm1.375 -6.625l-3.8125 0l0 2.5625l1.25 0l0.5625 -2.25l0.875 0.375q0.6875 0.3125 -0.125 0.375l-0.9375 1.5l2.1875 0l0 -2.5625zm-4.625 0l-3.875 0l0 2.5625l3.875 0l0 -2.5625zm-2.3125 -1.8125l3.9375 0l0.75 -0.75l0.875 0.6875q0.375 0.3125 0 0.4375l-5.5625 0l0 -0.375z" fill-rule="nonzero"/><path fill="#000000" d="m168.09727 88.31132q-0.25 0 -0.4375 -0.1875q-0.8125 -0.75 -2.25 -1.125q0.75 2.4375 2.6875 2.8125q0.3125 0.0625 0.5 -0.125l0.75 -1.75q0.25 -0.4375 0.1875 0.0625l-0.3125 1.6875q-0.0625 0.375 0.25 0.625q0.3125 0.375 -0.1875 0.5q-1.3125 0.125 -2.5625 -0.625q-2.375 -1.625 -2.375 -5.625l0 -0.375l-1.625 0l0 6.875q-0.8125 0.75 -0.8125 0.0625l0 -6.9375l-2.5 0l0 0.8125q0 4.125 -3.4375 6.25q-0.375 0.125 -0.1875 -0.25q2.8125 -2.1875 2.8125 -5.625l0 -1.1875l-3.125 0l0 -0.375l3.125 0l0 -2.5q-2.125 0.8125 -3.0625 1.0q-0.4375 0 -0.125 -0.25q2.625 -0.875 4.6875 -2.4375l0.9375 0.625q0.5 0.375 -0.4375 0.25l-1.1875 0.5l0 2.8125l2.5 0l0 -4.375l1.0625 0.1875q0.5 0.3125 -0.25 0.4375l0 3.75l1.4375 0l0.375 -0.5l0.875 0.625q0.375 0.3125 -0.25 0.4375l0 0.375q0 0.9375 0.1875 1.9375q0.8125 -1.125 1.1875 -2.0l0.75 0.4375q0.5 0.4375 -0.25 0.3125l-1.5 1.375q2.8125 0.125 2.8125 1.125q0 0.375 -0.25 0.375zm-1.9375 -9.9375q0.375 0.3125 -0.25 0.4375l0 0.625q0 0.5625 0.0625 0.8125l0.25 0q1.1875 -1.0625 1.875 -2.125l0.9375 0.6875q0.1875 0.3125 -0.625 0.1875l-1.875 1.3125q2.5625 0.5625 2.5625 1.4375q0 0.5 -0.375 0.5q-0.1875 0 -0.3125 -0.1875q-0.9375 -1.25 -2.4375 -1.5625q0.5 3.0 2.6875 3.6875q0.25 0 0.3125 -0.25l0.75 -1.5q0.25 -0.1875 0.1875 0.125l-0.5 1.4375q-0.125 0.375 0 0.5625q0.375 0.5 -0.125 0.625q-1.0625 -0.0625 -1.9375 -0.6875q-2.25 -1.5625 -2.25 -5.3125l0 -0.5625l-8.3125 0l0 -0.375l8.125 0l0.375 -0.5l0.875 0.625z" fill-rule="nonzero"/><path fill="#000000" fill-opacity="0.0" d="m89.62205 56.769028l28.09449 0l0 38.771652l-28.09449 0z" fill-rule="evenodd"/><path fill="#000000" d="m101.24705 77.78528q0 -0.234375 -0.0625 -0.421875q0 -0.75 0.875 -1.265625q0.5625 -0.28125 0.90625 -0.28125q0.46875 0.09375 0.640625 0.53125q0.375 0.875 0.5 1.171875q0.015625 0.15625 0.015625 0.109375q0 0.015625 0.03125 -0.0625q2.140625 -3.765625 3.84375 -5.84375q1.328125 -1.59375 1.65625 -1.859375q1.0625 -0.796875 2.734375 -0.875l0.125 0.65625q-1.140625 1.140625 -3.75 4.8125q-2.546875 3.671875 -3.671875 5.78125q-0.28125 0.65625 -0.703125 0.796875q-0.234375 0.234375 -0.953125 0.15625q-0.53125 0.078125 -0.78125 -0.1875q-0.21875 -0.140625 -0.453125 -0.578125q-0.625 -1.53125 -0.953125 -2.640625z" fill-rule="nonzero"/></g></svg>